<svg xmlns="http://www.w3.org/2000/svg" id="mdi-source-pull" viewBox="0 0 24 24">
<path
     d="m 18,3 a 3,3 0 0 0 -3,3 c 0,1.31 0.83,2.42 2,2.83 v 6.34 c -1.17,0.41 -2,1.52 -2,2.83 a 3,3 0 0 0 3,3 3,3 0 0 0 3,-3 c 0,-1.31 -0.83,-2.42 -2,-2.83 V 8.83 C 20.17,8.42 21,7.31 21,6 A 3,3 0 0 0 18,3 m 0,2 a 1,1 0 0 1 1,1 1,1 0 0 1 -1,1 1,1 0 0 1 -1,-1 1,1 0 0 1 1,-1 m 0,12 a 1,1 0 0 1 1,1 1,1 0 0 1 -1,1 1,1 0 0 1 -1,-1 1,1 0 0 1 1,-1 M 3,18 a 3,3 0 0 0 3,3 3,3 0 0 0 3,-3 C 9,16.69 8.17,15.58 7,15.17 V 7 h 2 v 3.25 L 13.25,6 9,1.75 V 5 H 7 A 2,2 0 0 0 5,7 v 8.17 C 3.83,15.58 3,16.69 3,18 m 3,-1 a 1,1 0 0 1 1,1 1,1 0 0 1 -1,1 1,1 0 0 1 -1,-1 1,1 0 0 1 1,-1 z"
     id="path1" />
</svg>
