<?xml version="1.0" encoding="UTF-8" standalone="no"?>
<svg
   width="8"
   height="8"
   viewBox="0 0 8 8"
   fill="#c5c5c5"
   version="1.1"
   id="svg4"
   sodipodi:docname="overlayDirty.svg"
   inkscape:version="1.2.1 (9c6d41e410, 2022-07-14, custom)"
   xmlns:inkscape="http://www.inkscape.org/namespaces/inkscape"
   xmlns:sodipodi="http://sodipodi.sourceforge.net/DTD/sodipodi-0.dtd"
   xmlns="http://www.w3.org/2000/svg"
   xmlns:svg="http://www.w3.org/2000/svg">
  <defs
     id="defs8">
    <clipPath
       clipPathUnits="userSpaceOnUse"
       id="clipPath5630">
      <path
         id="path5632"
         style="fill:#ff0000;fill-opacity:1;fill-rule:nonzero;stroke:none"
         d="m 12.337891,2 c 0.471323,0.3754287 0.221907,1.1035156 -0.75,1.1035156 h -0.197266 -0.337891 c 0.0031,0.00981 0.0045,0.019422 0.0078,0.029297 0.0021,0.00652 0.01174,0.013861 0.0078,0.019531 -0.04959,0.07237 -0.108329,0.1396698 -0.162109,0.2089843 -0.08324,0.1072984 -0.16885,0.2133731 -0.25,0.3222657 -0.05985,0.080311 -0.117638,0.1612311 -0.173828,0.2441406 -0.223557,0.3298379 -0.0683,0.1133102 -0.05273,0.091797 -0.0015,0.068814 -0.04671,0.1789208 -0.08594,0.265625 0.02405,0.00215 0.04811,0.00343 0.07227,0.00586 0.04405,0.00443 0.08867,0.012085 0.132812,0.015625 0.0493,0.00396 0.09901,-0.00423 0.148438,-0.00586 0.188752,-0.00621 0.181937,-0.00413 0.371093,-0.00781 0.229339,-0.00358 0.460124,0.00298 0.689453,0.00195 0.04506,-5.573e-4 0.08971,-0.00204 0.134766,-0.00195 1.309069,0.00255 1.307066,1.3251856 -0.002,1.3222656 -0.04228,-9.41e-5 -0.08468,0.00143 -0.126953,0.00195 -0.194708,7.868e-4 -0.389304,-0.00425 -0.583984,-0.00391 0.0022,0.010447 0.0034,0.020816 0.0059,0.03125 0.03185,0.2218248 -0.0056,0.4395547 -0.03516,0.6582032 -0.01287,0.095226 -0.0098,0.1384869 -0.03906,0.2324218 -0.01224,0.039264 -0.03134,0.07521 -0.04687,0.1132813 -0.02792,0.042351 -0.05079,0.086992 -0.08203,0.1269531 -0.02431,0.031087 -0.05248,0.05933 -0.08008,0.087891 0.02958,0.00418 0.05855,0.00916 0.08789,0.013672 0.02486,0.00383 0.07142,-0.011323 0.07422,0.013672 0.01387,0.1217686 0.03056,0.2444486 0.04687,0.3671875 0.01538,0.013331 0.03237,0.028044 0.04883,0.042969 -0.03265,-0.089658 -0.04584,-0.1519191 0.0098,-0.1113281 0.0438,0.032024 0.06713,0.078432 0.08203,0.1308594 0.04376,0.016746 0.06204,0.080152 0.08008,0.140625 0.04051,0.037836 0.064,0.060145 0.05078,0.041016 l 0.109376,0.1191407 c -0.0118,-0.011171 -0.0461,-0.045215 -0.03516,-0.033203 0.142515,0.1564415 0.118132,0.1071892 0.201172,0.2324219 0.03781,0.057011 0.100298,0.1043655 0.111328,0.171875 0.02553,0.1562144 0.02091,0.3157792 0.01953,0.4746094 0.01763,0.042763 0.01923,0.045665 0.04492,0.1074219 0.02155,0.071362 0.194958,0.5575529 0.09766,0.6328124 -0.299187,0.231383 -0.686127,0.3210601 -1.039063,0.4570313 -0.029,0.011173 -0.05904,-0.017324 -0.08984,-0.021484 -0.04448,-0.006 -0.08998,-0.00673 -0.134765,-0.00977 L 10.361328,9.5800781 C 10.117237,9.5232493 9.8953357,9.4980214 9.6972656,9.3046875 9.6419327,9.2506777 9.5912087,9.1919316 9.5429688,9.1308594 9.1553282,9.3378957 8.6367188,9.0326927 8.6367188,8.2128906 V 7.3828125 C 8.3040993,7.4156648 8.3593231,7.2216348 8.2734375,6.6601562 8.2930506,6.6071712 8.3119374,6.5527862 8.3320312,6.5 c -9.78e-5,-0.00949 -2.314e-4,-0.019911 0,-0.029297 0.00197,-0.080022 0.009,-0.1603247 0.013672,-0.2402343 0.00406,-0.1668934 0.052409,-0.3262612 0.085937,-0.4882813 0.00571,-0.027588 -0.015052,0.053833 -0.013672,0.00391 0.00206,-0.074532 0.00691,-0.1498132 0.011719,-0.2246094 C 8.2754003,5.516938 8.1211342,5.511788 7.9667966,5.505863 7.607702,5.492076 7.248096,5.471747 6.8886716,5.457035 c 0.025889,0.1393819 0.0393,0.2450065 0.039063,0.4003907 -10e-5,0.060774 -0.00657,0.1209515 -0.00977,0.1816406 -0.00321,-0.072963 -0.0075,0.025704 -0.013672,0.109375 0.00219,0.040288 0.00345,0.1948656 0.00391,0.2304687 -0.029199,0.2330413 -0.02154,0.2132387 -0.058594,0.3632813 -0.00499,0.040843 -0.015725,0.091937 -0.039063,0.15625 -0.03441,0.094828 -0.091065,0.1815373 -0.1367188,0.2714844 -0.058106,0.1170942 -0.1230055,0.2306189 -0.1875,0.34375 0.0024,0.012465 0.00446,0.024978 0.00781,0.037109 0.019803,0.071711 0.051673,0.1231517 0.1171875,0.1621094 0.00893,0.00104 0.3352558,0.039693 0.34375,0.041016 0.048689,0.00758 0.096215,0.019607 0.1445313,0.029297 -0.0048,0.00315 -0.019322,0.00875 -0.013672,0.00977 0.019595,0.00354 0.152637,0.00369 0.171875,0.00391 0.028185,-0.0016 0.05783,-0.00128 0.085937,-0.00391 0.092739,-0.00869 0.2673105,-0.043209 0.3320312,-0.037109 0.2125502,0.020027 0.3961321,0.082652 0.5507813,0.2324218 0.07917,0.076672 0.1339964,0.1743457 0.2011719,0.2617188 0.00105,0.00272 9.266e-4,0.0032 0.00195,0.00586 0.1774133,0.095675 0.2293378,0.5186497 0.052734,0.609375 -0.00581,0.021855 -0.016353,0.043909 -0.03125,0.060547 C 8.439557,9.026611 8.425481,9.1516831 8.42382,9.1894626 c -0.00367,0.083308 -1.58e-5,0.1666113 0,0.25 5.7e-6,0.029915 -1.13e-5,0.059929 0,0.089844 0.012268,0.00469 0.025387,0.00778 0.037109,0.013672 0.039436,0.019826 0.074558,0.045036 0.109375,0.072266 0.033595,0.00977 0.065587,0.022618 0.097656,0.044922 0.030979,0.00796 0.06262,0.014171 0.09375,0.021484 0.010424,0.00245 0.020809,0.00544 0.03125,0.00781 0.024726,0.00561 0.049395,0.012435 0.074219,0.017578 -0.016716,-0.011831 -0.034106,-0.023283 -0.050781,-0.035156 -0.019498,-0.013883 0.085953,0.041893 0.0625,0.037109 -0.00386,-7.877e-4 -0.00786,-0.00115 -0.011719,-0.00195 0.00264,0.00187 0.00517,0.00399 0.00781,0.00586 0.1730097,0.050929 0.2038904,0.1095322 0.4140625,0.4707034 -0.010352,-0.04918 -0.00888,-0.0496 0.015625,0.002 0.145893,0.315991 0.183386,0.642459 0.171875,0.986328 -0.00215,0.06419 -0.00505,0.128056 -0.015625,0.191406 -0.013529,0.08107 -0.037781,0.160235 -0.056641,0.240235 -0.035806,0.07585 -0.061005,0.158655 -0.1074219,0.228515 -0.074281,0.111795 -0.1675889,0.199729 -0.2597656,0.292969 -0.078572,0.07948 -0.1576022,0.158951 -0.2363282,0.238281 -0.1803055,0.176062 -0.3981635,0.30085 -0.625,0.40625 -0.04814,0.02238 -0.097073,0.04313 -0.1464843,0.0625 0.022602,0.06654 0.046602,0.133802 0.066406,0.201172 0.013789,0.04694 0.050979,0.097 0.033203,0.142578 -0.00169,0.0043 -0.00526,0.0052 -0.00781,0.0039 0.01031,0.02231 0.021559,0.04314 0.029297,0.06641 0.042106,0.126591 0.067336,0.33264 0.085937,0.449218 0.029029,0.416488 0.067289,0.757444 -0.064453,1.169922 -0.027862,0.08723 -0.05551,0.191145 -0.1328125,0.240235 -0.1539771,0.09779 -0.3262236,0.160487 -0.4980469,0.224609 0.060566,-0.0037 0.1150985,-0.0096 0.1875,-0.01172 0.016379,-0.01652 0.032255,-0.03312 0.050781,-0.04687 0.017878,-0.01328 -0.022663,0.04624 -0.044922,0.04687 -0.00227,6.6e-5 -0.00361,-6.7e-5 -0.00586,0 -0.016379,0.01652 -0.032761,0.03141 -0.052734,0.04297 -0.1673477,0.09683 -0.1883998,0.07681 -0.3710937,0.08398 -0.00913,-0.0015 -0.031097,-0.002 -0.037109,-0.0039 v -0.002 c 0.088702,-0.04113 0.1813358,-0.075 0.2734375,-0.109375 -0.7903508,0.04825 -0.6399475,0.200348 -0.9140625,-0.203125 -0.043267,-0.09164 -0.097338,-0.177147 -0.1289062,-0.273437 -0.083653,-0.25518 -0.082204,-0.281767 -0.089844,-0.46875 -0.00312,-0.08406 -0.00978,-0.188271 0.00586,-0.267578 0.00458,-0.02321 0.010986,-0.04564 0.017578,-0.06836 -1.05e-5,-0.07834 -2.08e-5,-0.156033 0,-0.234375 2.19e-5,-0.09449 4.741e-4,-0.188713 0,-0.283203 -2.3e-4,-0.229011 4.269e-4,-0.458492 0,-0.6875 -0.00242,-0.180936 -0.0211,-0.370179 0.015625,-0.548828 0.00318,-0.01545 0.00877,-0.02994 0.013672,-0.04492 -0.0042,-0.01576 -0.00939,-0.03114 -0.013672,-0.04687 C 6.4333451,12.153408 6.420845,12.104195 6.40625,12.054688 6.366385,11.919446 6.3515716,11.900402 6.3261719,11.75 6.3120199,11.666201 6.3040605,11.580354 6.2929688,11.496094 6.2460878,11.13997 6.268621,11.361696 6.234375,10.962891 6.232515,10.893811 6.231905,10.855143 6.230465,10.810547 H 4.2050781 c -0.1018284,0 -0.195264,-0.0087 -0.28125,-0.02344 2.7e-6,0.041 6.6e-6,0.08228 0,0.123047 -2e-7,0.0042 -3.3e-6,0.17968 0,0.179688 0.00833,0.0197 2.882e-4,-0.07918 0.013672,-0.0625 0.029105,0.03629 0.031892,0.08763 0.042969,0.132812 0.055139,0.224892 0.044788,0.208073 0.054687,0.423828 l -0.041016,0.230469 C 3.831787,12.741296 3.3264888,11.46225 3,11.152344 V 16 H 16 V 2 Z M 8.6679688,9.6601562 c -0.021584,-0.00554 -0.04294,-0.011758 -0.064453,-0.017578 0.065743,0.054654 0.1298583,0.1130662 0.203125,0.15625 0.044771,0.02639 -0.06821,-0.081126 -0.1074218,-0.1152343 -0.011374,-0.00989 -0.021028,-0.016328 -0.03125,-0.023438 z m -0.064453,-0.017578 c -0.01101,-0.00915 -0.021969,-0.018557 -0.033203,-0.027344 -0.019949,-0.0058 -0.038487,-0.00987 -0.064453,-0.017578 -0.026964,-0.00149 -0.1059311,-0.013668 -0.080078,-0.00586 0.05903,0.017823 0.1181777,0.034668 0.1777344,0.050781 z M 8.4511719,8.9257812 c 0.00224,-0.01944 0.00407,-0.035401 0.00586,-0.050781 -1.1329815,0.4487328 -1.3395756,-0.5617959 -1.234375,-0.082031 0.022558,0.042653 0.039288,0.090397 0.068359,0.1289062 0.012126,0.016062 0.025961,0.02685 0.039063,0.039063 0.3282478,0.1486806 0.7312576,0.025764 1.0917969,-0.015625 0.010086,-0.00116 0.019643,-0.00875 0.029297,-0.019531 z M 8.4570312,8.875 c 0.0047,-0.00186 0.00894,-0.002 0.013672,-0.00391 0.00416,-0.00168 0.00778,-0.00384 0.011719,-0.00586 0.00737,-0.027716 0.00553,-0.051898 -0.019531,-0.048828 -0.00108,0.00937 -0.0038,0.040875 -0.00586,0.058594 z M 3,2.7324219 v 4.5839843 c 0.00569,-0.00404 0.01191,-0.00768 0.017578,-0.011719 0.2071079,-0.1474648 0.465266,-0.2495835 0.7226563,-0.2558594 0.017159,-4.184e-4 0.033653,-4.514e-4 0.050781,0 0.073808,0.00195 0.1462374,0.020009 0.21875,0.035156 0.04614,-3.984e-4 0.092532,0.00303 0.1386719,0.00391 0.028087,5.372e-4 0.055186,0.00219 0.082031,0.00391 L 4.3535156,6.984375 c 0.00786,-0.012648 0.013549,-0.025976 0.023437,-0.037109 0.1564262,-0.1761268 0.1531452,-0.1432196 0.2890625,-0.3242187 0.019367,-0.025791 0.034088,-0.056386 0.050781,-0.083984 -0.00827,0.00857 -0.029921,0.038362 -0.025391,0.027344 0.0093,-0.022626 0.02079,-0.042847 0.03125,-0.064453 C 4.648651,6.2781454 4.5747944,6.0538179 4.4941406,5.8320312 4.4673281,5.7213836 4.4559217,5.6845466 4.4550781,5.6621094 4.4415445,5.6440251 4.4323653,5.622574 4.4199219,5.6035156 L 4.3476562,5.4863281 C 4.3358899,5.4746811 4.322547,5.4643309 4.3125,5.4511719 4.259327,5.3815248 4.1364352,5.2097432 4.1074219,5.1230469 4.0726539,5.0191552 3.9941359,4.90432 4.0351562,4.8027344 c 0.017353,-0.042973 0.037334,-0.083294 0.060547,-0.1230469 0.00205,-0.05934 0.00527,-0.1185433 0.00977,-0.1777344 0.00382,-0.050647 0.012653,-0.1000659 0.019531,-0.1503906 0.023534,-0.06993 0.042183,-0.129427 0.060547,-0.1835937 C 3.9560898,3.9059506 3.7663137,3.6100509 3.5820312,3.3144531 3.5311587,3.2328504 3.6161804,3.1082664 3.5703125,3.0234375 3.3175553,2.9670043 3.1266951,2.8613175 3,2.7324219 Z m 3.7988281,0.3710937 c -0.044729,0.1478501 -0.290503,0.3639233 -0.5117187,0.5683594 0.2292619,0.1359392 0.3203767,0.1725813 0.5117187,0.4003906 0.021576,0.025688 0.031257,0.040129 0.046875,0.060547 0.393391,0.014685 0.7866419,0.035689 1.1796875,0.050781 0.186865,0.00718 0.3737196,0.011939 0.5605469,0.017578 0.00483,-0.094964 0.016931,-0.1906738 0.03125,-0.2851563 v -0.00195 c -0.00134,-0.00185 -0.00258,-0.004 -0.00391,-0.00586 -0.039305,-0.05517 -0.069779,-0.1119857 -0.082031,-0.1757812 -6.356e-4,-0.00136 -0.00133,-0.00255 -0.00195,-0.00391 C 8.3968614,3.4420787 8.4652344,3.3588218 8.6289062,3.375 8.6827492,3.2854908 8.7461064,3.199294 8.7871094,3.1074219 c -0.012272,0.1086268 -0.022106,0.2050032 -0.029297,0.2949219 0.1257653,0.03481 0.2775493,0.09831 0.4296875,0.1621093 0.00379,-0.00996 0.00696,-0.019645 0.011719,-0.029297 0.027886,-0.06051 0.051857,-0.1232716 0.083984,-0.1816406 0.035335,-0.064198 0.098647,-0.158949 0.1621094,-0.25 H 9.1269531 c -0.1733168,3.7e-6 -0.3462144,1.63e-5 -0.5195312,0 -0.3898422,0 -0.7800798,1.11e-4 -1.1699219,0 -0.1535697,-8.36e-5 -0.3073748,-0.00166 -0.4609375,0 -0.05911,-5.8e-6 -0.1186252,3.92e-4 -0.1777344,1e-7 z m -1.1464843,0.00586 c -0.1542556,0.00213 -0.3084672,0.0058 -0.4628907,0.00586 0.088003,0.048204 0.1848592,0.097927 0.2773438,0.1464844 0.02289,-0.017439 0.044921,-0.036024 0.068359,-0.052734 0.038352,-0.03491 0.073997,-0.072409 0.1171876,-0.099609 z m 0.4394531,0.7519531 c -0.027412,0.028721 -0.052395,0.057336 -0.074219,0.083984 0.090853,0.067143 0.166865,0.123438 0.2324219,0.171875 0.078015,6.288e-4 0.1563705,0.0022 0.234375,0.00391 9.629e-4,-7.328e-4 9.669e-4,-0.00121 0.00195,-0.00195 C 6.3870612,4.0231867 6.3083269,3.994537 6.1035156,3.8671875 c -0.00394,-0.00188 -0.00777,-0.00399 -0.011719,-0.00586 z m 2.6308593,0.1816407 c -0.00192,0.012862 -0.00463,0.020915 -0.00781,0.025391 0.017639,0.029003 0.044278,0.061766 0.095703,0.1152344 0.010566,0.010985 0.044741,0.038584 0.037109,0.025391 -0.033705,-0.058263 -0.078959,-0.112143 -0.125,-0.1660156 z M 4.3222656,4.3066406 C 4.2695036,4.3800388 4.2271473,4.4615832 4.1875,4.5449219 4.2402877,4.474357 4.2988012,4.4065992 4.3554688,4.3378906 4.3440615,4.3278546 4.3334434,4.3169126 4.3222656,4.3066406 Z M 4.6933594,4.609375 c -0.062812,0.072386 -0.054307,0.1327145 -0.00781,0.1835938 0.027062,-0.037205 0.056111,-0.083129 0.083984,-0.1308594 C 4.7538582,4.6497798 4.7385457,4.6370439 4.7226562,4.625 4.7211267,4.6247096 4.72019,4.6234169 4.71875,4.6230469 4.707845,4.6202069 4.6993964,4.616597 4.6933594,4.609375 Z M 4.09375,4.7363281 c -0.00196,0.00387 -0.00388,0.00787 -0.00586,0.011719 -0.00765,0.014869 -0.00307,0.057329 0,0.068359 h 0.00195 c 0.00175,-0.026389 0.00282,-0.05365 0.00391,-0.080078 z m 6.011719,0.8515625 c -4.59e-4,0.047531 -0.002,0.09494 -0.002,0.1425782 0,0.027464 -8.46e-4,0.05655 0,0.083984 -6.3e-5,-0.018263 0.002,-0.037712 0.0059,-0.029297 0.02262,0.049013 0.02702,0.1041145 0.04102,0.15625 0.07046,0.2087551 0.114271,0.4253753 0.115234,0.6464844 3.76e-4,0.086365 -0.0097,0.1687056 -0.02344,0.2519532 0.0052,0.010528 0.0094,0.02212 0.01562,0.03125 0.01152,0.016963 0.02187,0.035505 0.0332,0.052734 0.07146,-0.010404 0.143197,-0.018832 0.214843,-0.023437 l 0.002,-0.00195 c 0.0574,-0.060883 0.114636,-0.1225608 0.171876,-0.1835937 0.02769,-0.02953 0.05795,-0.056886 0.08398,-0.087891 0.02176,-0.025912 0.03885,-0.054555 0.05859,-0.082031 0.01054,-0.022642 0.02335,-0.04466 0.03125,-0.068359 0.02575,-0.077441 0.02394,-0.1302167 0.03516,-0.2128906 0.02524,-0.18605 0.0607,-0.3714869 0.03906,-0.5605469 -0.009,-0.042159 -0.01192,-0.055156 -0.01758,-0.083984 -0.119644,0.00433 -0.24004,0.00876 -0.359375,0.00781 -0.136829,-0.00109 -0.141189,-0.00636 -0.263672,-0.019531 -0.06092,-0.00655 -0.120771,-0.013286 -0.18164,-0.019531 z m 0.839843,1.546875 c -0.0059,0.00344 -0.0062,0.016676 0,0.041016 0.0049,0.018968 0.01137,0.037822 0.01758,0.056641 0.01272,0.024014 0.0259,0.052074 0.03906,0.078125 0.01846,5.633e-4 0.03745,-5.05e-4 0.05664,0 -0.02609,-0.037743 -0.04822,-0.073595 -0.06055,-0.1035157 -0.01014,-0.024608 -0.0033,-0.031122 0.01172,-0.025391 -0.02441,-0.024896 -0.04483,-0.043621 -0.05664,-0.046875 -0.0031,-8.658e-4 -0.0058,-0.00115 -0.0078,0 z m 0.171876,0.1679688 c 4.14e-4,0.00322 -4.16e-4,0.00655 0,0.00977 0.0028,6.01e-5 0.005,-5.87e-5 0.0078,0 -0.0027,-0.0032 -0.0051,-0.00659 -0.0078,-0.00977 z m 0.01172,0.1015625 c 0.0061,0.05152 0.0129,0.1027926 0.01758,0.1542969 0.03039,0.035775 0.06275,0.069104 0.09766,0.099609 l 0.03516,-0.041016 c -0.0044,-0.017299 -0.01328,-0.037716 -0.02149,-0.060547 v -0.00195 c -0.04285,-0.049145 -0.08763,-0.098673 -0.128906,-0.1503906 z m 0.175782,0.2070312 c 0.0034,0.011085 0.0074,0.022722 0.01172,0.033203 0.0063,0.01522 0.0057,0.00293 0.0039,-0.015625 -0.0054,-0.00623 -0.01,-0.011103 -0.01562,-0.017578 z m -0.002,0.074219 c -5.65e-4,0.00334 6.53e-4,0.01172 0.002,0.021484 l 0.002,0.00195 c 5.8e-4,-0.00734 0.0013,-0.00969 0.002,-0.017578 -0.0034,-0.00808 -0.0053,-0.0092 -0.0059,-0.00586 z M 7.234375,8.3710938 C 7.152923,8.4228818 7.1289004,8.5520628 7.148438,8.6777344 7.1489,8.6736444 7.149928,8.6701244 7.150388,8.6660154 7.169074,8.5910034 7.17893,8.514155 7.205075,8.441406 7.214045,8.416444 7.224418,8.394008 7.234372,8.371094 Z M 5.7695312,8.7089844 c -0.016224,0.020971 -0.030747,0.043375 -0.048828,0.0625 C 5.6565484,8.839343 5.5779926,8.890421 5.5039062,8.9472656 5.4164752,9.014351 5.379842,9.0219939 5.3105469,9.1015625 5.1395754,9.2336599 4.9779231,9.3837057 4.7871094,9.4882812 H 6.3105469 C 6.337661,9.3776431 6.376534,9.2810881 6.4335938,9.2460938 6.5629821,9.1667401 6.6675717,9.1074068 6.7597656,9.0625 6.7449635,9.0594797 6.7468007,9.057637 6.6992188,9.0507812 6.6829248,9.0484331 6.6667706,9.0504781 6.6503906,9.0488281 6.5862702,9.0423701 6.5210472,9.0347735 6.4570312,9.0273438 6.3323896,8.9870902 6.2022771,8.9624887 6.0839844,8.90625 5.9660132,8.8501643 5.863437,8.7851496 5.7695312,8.7089844 Z M 8.921875,9.7441406 C 8.957952,9.7690226 8.993927,9.7954186 9.03125,9.8183596 9.057756,9.8346506 8.986878,9.7735466 8.958984,9.7597656 8.947025,9.7538556 8.934108,9.7494276 8.921875,9.7441406 Z M 8.4257812,10.943359 c 7.33e-5,0.0033 0.00188,0.0065 0.00195,0.0098 0.031739,0.0084 0.065584,0.01493 0.125,0.0293 -0.041601,-0.01393 -0.084849,-0.02642 -0.1269532,-0.03906 z m -1.9453124,1.384766 c -0.00397,0.264907 -0.00545,0.260588 0.025391,0.08789 -0.00405,-0.013 -0.00793,-0.02598 -0.011719,-0.03906 -0.00471,-0.01627 -0.0092,-0.03249 -0.013672,-0.04883 z m 1.1953124,2.103516 c -0.00648,0.02278 -0.013189,0.04554 -0.019531,0.06836 -0.00941,0.03387 0.00792,-0.01186 0.027344,-0.06641 -0.00263,-3.77e-4 -0.00519,-0.0016 -0.00781,-0.002 z m 0.097656,0.02734 c 0.016875,0.03362 0.03271,0.06953 0.048828,0.103516 -0.018614,-0.03084 -0.026468,-0.07816 -0.048828,-0.103516 z" />
    </clipPath>
  </defs>
  <sodipodi:namedview
     id="namedview6"
     pagecolor="#ffffff"
     bordercolor="#666666"
     borderopacity="1.0"
     inkscape:showpageshadow="2"
     inkscape:pageopacity="0"
     inkscape:pagecheckerboard="0"
     inkscape:deskcolor="#d1d1d1"
     showgrid="false"
     showguides="true"
     inkscape:zoom="37.8125"
     inkscape:cx="1.785124"
     inkscape:cy="7.3785124"
     inkscape:window-width="1600"
     inkscape:window-height="831"
     inkscape:window-x="0"
     inkscape:window-y="0"
     inkscape:window-maximized="1"
     inkscape:current-layer="svg4"
     inkscape:lockguides="false" />
  <path
     sodipodi:type="star"
     style="fill:#ff0000;fill-rule:evenodd;stroke-width:0;paint-order:markers fill stroke"
     id="path2483"
     inkscape:flatsided="false"
     sodipodi:sides="5"
     sodipodi:cx="1.6717975"
     sodipodi:cy="1.6407025"
     sodipodi:r1="3.9869401"
     sodipodi:r2="1.5150372"
     sodipodi:arg1="0.81941012"
     sodipodi:arg2="1.4477287"
     inkscape:rounded="0"
     inkscape:randomized="0"
     d="M 4.3934917,4.5541322 1.8577792,3.144281 -0.25798903,5.1294867 0.29928085,2.2822129 -2.2425703,0.88346004 0.63755384,0.53359921 1.1823717,-2.3160833 2.4051164,0.31496457 5.2836836,-0.0474832 3.1592572,1.9284547 Z"
     inkscape:transform-center-x="0.16029197"
     inkscape:transform-center-y="-0.25158499"
     transform="matrix(1.0598456,0,0,1.0751459,2.3978449,2.4913998)" />
</svg>
