<?xml version="1.0" encoding="UTF-8" standalone="no"?>
<!-- Copyright 2000-2022 JetBrains s.r.o. and contributors. Use of this source code is governed by the Apache 2.0 license. -->

<svg
   width="16"
   height="16"
   viewBox="0 0 16 16"
   fill="none"
   version="1.1"
   id="svg8"
   sodipodi:docname="debugIt.svg"
   inkscape:version="1.4.2 (ebf0e940d0, 2025-05-08)"
   xmlns:inkscape="http://www.inkscape.org/namespaces/inkscape"
   xmlns:sodipodi="http://sodipodi.sourceforge.net/DTD/sodipodi-0.dtd"
   xmlns="http://www.w3.org/2000/svg"
   xmlns:svg="http://www.w3.org/2000/svg">
  <defs
     id="defs8" />
  <sodipodi:namedview
     id="namedview8"
     pagecolor="#ffffff"
     bordercolor="#666666"
     borderopacity="1.0"
     inkscape:showpageshadow="2"
     inkscape:pageopacity="0.0"
     inkscape:pagecheckerboard="0"
     inkscape:deskcolor="#d1d1d1"
     inkscape:zoom="69.875"
     inkscape:cx="8"
     inkscape:cy="8"
     inkscape:window-width="2560"
     inkscape:window-height="1371"
     inkscape:window-x="0"
     inkscape:window-y="0"
     inkscape:window-maximized="1"
     inkscape:current-layer="svg8" />
  <path
     d="M14.9004 9.50006C15.1765 9.50006 15.4004 9.2762 15.4004 9.00006C15.4004 8.72392 15.1765 8.50006 14.9004 8.50006L14.9004 9.50006ZM12.4004 9.50006L14.9004 9.50006L14.9004 8.50006L12.4004 8.50006L12.4004 9.50006Z"
     fill="#6C707E"
     id="path2" />
  <path
     d="M14.455 5.23979C14.6979 5.10835 14.7882 4.80492 14.6567 4.56207C14.5253 4.31922 14.2219 4.22891 13.979 4.36035L14.455 5.23979ZM12.238 6.43978L14.455 5.23979L13.979 4.36035L11.762 5.56034L12.238 6.43978Z"
     fill="#6C707E"
     id="path3" />
  <path
     d="M2.02989 13.5331C1.79075 13.6712 1.48495 13.5892 1.34688 13.3501C1.20881 13.1109 1.29075 12.8051 1.52989 12.6671L2.02989 13.5331ZM4.25 12.2513L2.02989 13.5331L1.52989 12.6671L3.75 11.3853L4.25 12.2513Z"
     fill="#6C707E"
     id="path4" />
  <path
     d="M1.09961 9.50006C0.823467 9.50006 0.599609 9.2762 0.599609 9.00006C0.599609 8.72392 0.823467 8.50006 1.09961 8.50006L1.09961 9.50006ZM3.59961 9.50006L1.09961 9.50006L1.09961 8.50006L3.59961 8.50006L3.59961 9.50006Z"
     fill="#6C707E"
     id="path5" />
  <path
     d="M1.54215 5.23994C1.29922 5.10863 1.20874 4.80526 1.34004 4.56233C1.47134 4.3194 1.77472 4.22891 2.01765 4.36022L1.54215 5.23994ZM3.76225 6.43992L1.54215 5.23994L2.01765 4.36022L4.23775 5.5602L3.76225 6.43992Z"
     fill="#6C707E"
     id="path6" />
  <path
     fill-rule="evenodd"
     clip-rule="evenodd"
     d="M6.30078 4.2C6.30078 3.26112 7.0619 2.5 8.00078 2.5C8.93967 2.5 9.70078 3.26112 9.70078 4.2C9.70078 4.48922 9.62856 4.76157 9.50116 5H10.5C10.5267 5 10.5533 5.00053 10.5798 5.00157C10.6584 4.74832 10.7008 4.4791 10.7008 4.2C10.7008 2.70883 9.49195 1.5 8.00078 1.5C6.50961 1.5 5.30078 2.70883 5.30078 4.2C5.30078 4.47908 5.34312 4.74827 5.42173 5.0015C5.4477 5.0005 5.47379 5 5.5 5H6.5004C6.37301 4.76157 6.30078 4.48922 6.30078 4.2Z"
     fill="#6C707E"
     id="path7" />
  <path
     d="M4 7.5C4 5.84315 5.34315 4.5 7 4.5H9C10.6569 4.5 12 5.84315 12 7.5V10C12 12.2091 10.2091 14 8 14V14C5.79086 14 4 12.2091 4 10V7.5Z"
     stroke="#6C707E"
     id="path8" />
  <path
     d="m 14.002331,13.512726 c 0.2391,0.1381 0.5449,0.0561 0.683,-0.183 0.1381,-0.2392 0.0561,-0.5449 -0.183,-0.683 z m -2.217,-1.28 2.217,1.28 0.5,-0.866 -2.217,-1.28 z"
     fill="#6c707e"
     id="path1" />
  <path
     d="m 14.758632,11.863939 c 0.296123,0.154171 0.296123,0.539599 0,0.69377 l -3.997472,2.081317 c -0.296112,0.154171 -0.666247,-0.03854 -0.666247,-0.346875 v -4.162642 c 0,-0.3083428 0.370135,-0.5010576 0.666247,-0.3468861 z"
     fill="#f2fcf3"
     stroke="#208a3c"
     id="path1-3"
     style="stroke-width:0.421793;fill:#208a3c;fill-opacity:1" />
</svg>
