<!-- Copyright 2000-2024 JetBrains s.r.o. and contributors. Use of this source code is governed by the Apache 2.0 license. -->
<svg width="16" height="16" viewBox="0 0 16 16" fill="none" xmlns="http://www.w3.org/2000/svg">
<path d="M3 4C3 3.44772 3.44772 3 4 3H6C6.27614 3 6.5 2.77614 6.5 2.5C6.5 2.22386 6.27614 2 6 2H4C2.89543 2 2 2.89543 2 4V5.5C2 5.77614 2.22386 6 2.5 6C2.77614 6 3 5.77614 3 5.5V4Z" fill="#CED0D6"/>
<path d="M13 4V5.5C13 5.77614 13.2239 6 13.5 6C13.7761 6 14 5.77614 14 5.5V4C14 2.89543 13.1046 2 12 2H10.5C10.2239 2 10 2.22386 10 2.5C10 2.77614 10.2239 3 10.5 3L12 3C12.5523 3 13 3.44772 13 4Z" fill="#CED0D6"/>
<path d="M10.5 13L12 13C12.5523 13 13 12.5523 13 12V10.5C13 10.2239 13.2239 10 13.5 10C13.7761 10 14 10.2239 14 10.5V12C14 13.1046 13.1046 14 12 14L10.5 14C10.2239 14 10 13.7761 10 13.5C10 13.2239 10.2239 13 10.5 13Z" fill="#CED0D6"/>
<path d="M4 13C3.44772 13 3 12.5523 3 12L3 10.5C3 10.2239 2.77614 10 2.5 10C2.22386 10 2 10.2239 2 10.5V12C2 13.1046 2.89543 14 4 14H5.5C5.77614 14 6 13.7761 6 13.5C6 13.2239 5.77614 13 5.5 13H4Z" fill="#CED0D6"/>
</svg>
