<svg width="16" height="16" viewBox="0 0 16 16" fill="none" xmlns="http://www.w3.org/2000/svg">
<path d="M1 6C1 4.89543 1.89543 4 3 4H11C12.1046 4 13 4.89543 13 6V12C13 13.1046 12.1046 14 11 14H3C1.89543 14 1 13.1046 1 12V6Z" fill="#EBECF0"/>
<path d="M4.5 2C4.22386 2 4 2.22386 4 2.5C4 2.77614 4.22386 3 4.5 3H13C13.5523 3 14 3.44772 14 4V10.5C14 10.7761 14.2239 11 14.5 11C14.7761 11 15 10.7761 15 10.5V4C15 2.89543 14.1046 2 13 2H4.5Z" fill="#6C707E"/>
<path d="M6.35355 8.64645L4.85355 7.14645C4.65829 6.95118 4.34171 6.95118 4.14645 7.14645C3.95118 7.34171 3.95118 7.65829 4.14645 7.85355L5.29289 9L4.14645 10.1464C3.95118 10.3417 3.95118 10.6583 4.14645 10.8536C4.34171 11.0488 4.65829 11.0488 4.85355 10.8536L6.35355 9.35355C6.54882 9.15829 6.54882 8.84171 6.35355 8.64645Z" fill="#6C707E"/>
<path d="M7.5 10H9.5C9.77614 10 10 10.2239 10 10.5C10 10.7761 9.77614 11 9.5 11H7.5C7.22386 11 7 10.7761 7 10.5C7 10.2239 7.22386 10 7.5 10Z" fill="#6C707E"/>
<path fill-rule="evenodd" clip-rule="evenodd" d="M1 6C1 4.89543 1.89543 4 3 4H11C12.1046 4 13 4.89543 13 6V12C13 13.1046 12.1046 14 11 14H3C1.89543 14 1 13.1046 1 12V6ZM3 5H11C11.5523 5 12 5.44772 12 6V12C12 12.5523 11.5523 13 11 13H3C2.44772 13 2 12.5523 2 12V6C2 5.44772 2.44772 5 3 5Z" fill="#6C707E"/>
</svg>
