<?xml version="1.0" encoding="UTF-8" standalone="no"?>
<svg
   id="mdi-lighthouse"
   viewBox="0 0 24 24"
   version="1.1"
   xmlns="http://www.w3.org/2000/svg"
   xmlns:svg="http://www.w3.org/2000/svg">
  <defs
     id="defs1" />
  <path
     d="M8,10V8H9V4H8V3L12,1L16,3V4H15V8H16V10H14.74L8.44,13.64L9,10H8M13,8V4H11V8H13M7,23L7.04,22.76L16.15,17.5L16.67,20.88L13,23H7M8.05,16.17L15.31,12L15.83,15.37L7.43,20.22L8.05,16.17Z"
     id="path1" />
  <path
     style="fill:#5599ff;fill-rule:evenodd;stroke-width:0.0288867;stroke-linejoin:bevel;paint-order:markers fill stroke"
     d="m 8.4733412,13.513894 c 0.031494,-0.170137 0.5338877,-3.463755 0.5338877,-3.500088 0,-0.029773 -0.1054295,-0.037902 -0.4915662,-0.037902 H 8.0240964 V 8.9927711 8.0096386 H 8.5156627 9.0072289 V 6 3.9903614 H 8.5156627 8.0240964 V 3.4988365 3.0073115 l 1.9879526,-0.9940586 1.987953,-0.9940586 1.987951,0.994059 1.987951,0.994059 V 3.4988369 3.9903614 H 15.484337 14.992771 V 6 8.0096386 h 0.491566 0.491567 v 0.9831325 0.9831325 l -0.614458,3.01e-5 -0.614458,2.98e-5 -3.108434,1.7961815 c -1.7096383,0.9879 -3.1246478,1.802512 -3.1444653,1.810249 -0.025583,0.01 -0.031599,-0.0099 -0.020748,-0.0685 z M 13.026506,6 V 3.9903614 H 12 10.973494 V 6 8.0096386 H 12 13.026506 Z"
     id="path2" />
  <path
     style="fill:#5599ff;fill-rule:evenodd;stroke-width:0.0288867;stroke-linejoin:bevel;paint-order:markers fill stroke"
     d="m 7.45895,20.119588 c 0.00827,-0.03662 0.1464469,-0.931877 0.3070682,-1.989468 0.1606213,-1.05759 0.3071687,-1.937192 0.3256609,-1.95467 0.027184,-0.02569 6.9411789,-4.002064 7.1490029,-4.111528 0.05907,-0.03111 0.06376,-0.0069 0.315157,1.629863 0.140358,0.913794 0.250004,1.666072 0.243655,1.671729 -0.01356,0.01209 -8.192397,4.733599 -8.289582,4.785445 -0.060885,0.03248 -0.064828,0.03005 -0.050962,-0.03137 z"
     id="path3" />
  <path
     style="fill:#d40055;fill-rule:evenodd;stroke-width:0.0288867;stroke-linejoin:bevel;paint-order:markers fill stroke"
     d="m 7.0309113,22.893976 c 0.00958,-0.05169 0.032025,-0.108599 0.04988,-0.126471 0.017854,-0.01787 2.0233056,-1.180682 4.4565577,-2.584022 2.433254,-1.403341 4.464032,-2.575674 4.512844,-2.605186 l 0.08874,-0.05366 0.255455,1.663118 c 0.151728,0.987808 0.244846,1.673535 0.229327,1.688772 -0.01437,0.01411 -0.838723,0.494953 -1.831894,1.068539 L 12.98606,22.987952 H 9.9997773 7.013494 Z"
     id="path4" />
  <path
     style="fill:#ff0000;fill-rule:evenodd;stroke-width:0.0288867;stroke-linejoin:bevel;paint-order:markers fill stroke"
     d="M 11.00241,6 V 4.0192771 H 12 12.99759 V 6 7.9807229 H 12 11.00241 Z"
     id="path5" />
  <path
     style="fill:#c9c9c9;fill-opacity:1;fill-rule:evenodd;stroke-width:0.0288867;stroke-linejoin:bevel;paint-order:markers fill stroke"
     d="m 7.0413587,22.951807 c 0.00153,-0.139856 0.04405,-0.171084 0.9499213,-0.697616 0.8015036,-0.46587 3.48667,-2.017807 7.014814,-4.054332 0.603713,-0.348477 1.104677,-0.630276 1.113253,-0.62622 0.02166,0.01025 0.492701,3.112857 0.492701,3.245293 0,0.02428 -0.06181,0.08165 -0.137349,0.127505 -0.12282,0.07455 -2.602484,1.512603 -3.261243,1.891326 l -0.261242,0.150189 H 9.996589 c -2.3454336,0 -2.9555436,-0.0075 -2.9552303,-0.03615 z"
     id="path6" />
  <path
     style="fill:#3771c8;fill-opacity:1;fill-rule:evenodd;stroke-width:0.0288867;stroke-linejoin:bevel;paint-order:markers fill stroke"
     d="m 8.1325301,22.966276 c -1.0316506,-0.0077 -1.0626506,-0.0096 -1.0626506,-0.06435 0,-0.102573 -0.2141534,0.02562 4.6987955,-2.812621 4.148688,-2.396719 4.318584,-2.493612 4.338123,-2.474073 0.01729,0.01729 0.235642,1.400534 0.380579,2.410959 0.0822,0.573053 0.101819,0.777187 0.07832,0.814968 -0.0339,0.0545 -0.104625,0.09663 -2.224875,1.325089 l -1.418212,0.821704 -1.863716,-0.0069 c -1.025044,-0.0038 -2.341909,-0.01044 -2.9263669,-0.01481 z"
     id="path7" />
  <path
     style="fill:#3771c8;fill-opacity:1;fill-rule:evenodd;stroke-width:0.0288867;stroke-linejoin:bevel;paint-order:markers fill stroke"
     d="m 7.4746988,20.129932 c 0,-0.0395 0.5186748,-3.359861 0.5678555,-3.635202 0.026455,-0.148111 0.055896,-0.280816 0.065424,-0.2949 0.019133,-0.02828 0.7742636,-0.466935 3.6462387,-2.118092 2.418782,-1.390607 3.413554,-1.957813 3.473632,-1.98062 0.03941,-0.01496 0.05489,0.02381 0.09455,0.236881 0.06595,0.354306 0.420719,2.671962 0.439195,2.869171 l 0.01513,0.161505 -1.281133,0.735981 c -0.704623,0.40479 -2.191976,1.261816 -3.305229,1.904501 -3.4377068,1.984603 -3.7156619,2.14325 -3.7156619,2.120775 z"
     id="path8" />
  <path
     style="fill:#3771c8;fill-opacity:1;fill-rule:evenodd;stroke-width:0.0288867;stroke-linejoin:bevel;paint-order:markers fill stroke"
     d="m 8.486747,13.548719 c 0,-0.01002 0.052644,-0.359331 0.1169859,-0.776242 0.2450399,-1.587754 0.403496,-2.65834 0.403496,-2.726163 V 9.975904 H 8.5156627 8.0240964 V 8.9927711 8.0096386 H 8.5156627 9.0072289 V 6 3.9903614 H 8.5156627 8.0240964 V 3.5058565 3.0213515 L 10.012186,2.0276406 12.000276,1.0339297 13.98809,2.0277099 15.975904,3.02149 V 3.5059257 3.9903614 H 15.484337 14.992771 V 6 8.0096386 h 0.491566 0.491567 v 0.9831325 0.9831325 h -0.631117 -0.631118 l -1.631533,0.9431904 c -0.897344,0.518755 -2.2431,1.294868 -2.99057,1.724695 -0.7474696,0.429827 -1.4143371,0.813374 -1.4819274,0.852328 -0.06759,0.03895 -0.1228916,0.06262 -0.1228916,0.0526 z M 13.026506,6 V 3.9903614 H 12 10.973494 V 6 8.0096386 H 12 13.026506 Z"
     id="path9" />
</svg>
