<?xml version="1.0" encoding="UTF-8" standalone="no"?>
<svg
   viewBox="0 0 32 32"
   version="1.1"
   id="svg2"
   xmlns="http://www.w3.org/2000/svg"
   xmlns:svg="http://www.w3.org/2000/svg"
   xmlns:rdf="http://www.w3.org/1999/02/22-rdf-syntax-ns#"
   xmlns:cc="http://creativecommons.org/ns#"
   xmlns:dc="http://purl.org/dc/elements/1.1/">
  <defs
     id="defs2" />
  <title
     id="title1">file_type_markdown</title>
  <rect
     x="2.5"
     y="7.955"
     width="27"
     height="16.091"
     style="fill:none;stroke:#755838"
     id="rect1" />
  <polygon
     points="5.909 20.636 5.909 11.364 8.636 11.364 11.364 14.773 14.091 11.364 16.818 11.364 16.818 20.636 14.091 20.636 14.091 15.318 11.364 18.727 8.636 15.318 8.636 20.636 5.909 20.636"
     style="fill:#755838"
     id="polygon1" />
  <polygon
     points="22.955 20.636 18.864 16.136 21.591 16.136 21.591 11.364 24.318 11.364 24.318 16.136 27.045 16.136 22.955 20.636"
     style="fill:#755838"
     id="polygon2" />
  <path
     style="fill:#ff6600;fill-rule:evenodd;stroke-width:0.0285939;stroke-linejoin:bevel;paint-order:markers fill stroke"
     d="m 5.9248658,16 v -4.62254 l 1.3524151,4.22e-4 1.352415,4.22e-4 1.3595706,1.702197 c 0.7477635,0.936208 1.3667325,1.702387 1.3754875,1.702619 0.0088,2.32e-4 0.627,-0.765288 1.373882,-1.701155 l 1.357965,-1.701577 1.352415,-0.0015 1.352415,-0.0015 V 16 20.62254 h -1.345112 -1.345112 l -0.0073,-2.669052 -0.0073,-2.669052 -1.358073,1.695886 c -0.74694,0.932737 -1.365861,1.695886 -1.37538,1.695886 -0.0095,0 -0.628439,-0.763149 -1.3753793,-1.695886 l -1.3580728,-1.695886 -0.0073,2.669052 -0.0073,2.669052 H 7.2699777 5.9248658 Z"
     id="path2" />
  <path
     style="fill:#ff6600;fill-rule:evenodd;stroke-width:0.0285939;stroke-linejoin:bevel;paint-order:markers fill stroke"
     d="m 20.929744,18.383061 -2.009812,-2.211326 1.345043,-0.0074 1.345043,-0.0074 V 13.767162 11.37746 h 1.345259 1.34526 v 2.389702 2.389702 l 1.343402,0.0074 1.343402,0.0074 -2.001177,2.203755 c -1.100648,1.212065 -2.0114,2.207162 -2.023893,2.211326 -0.01249,0.0042 -0.927131,-0.987525 -2.032527,-2.203755 z"
     id="path3" />
  <path
     style="fill:#ff6600;fill-rule:evenodd;stroke-width:0.0285939;stroke-linejoin:bevel;paint-order:markers fill stroke"
     d="M 2.0035778,16 V 7.4561717 H 16 29.996422 V 16 24.543828 H 16 2.0035778 Z M 29.023256,16 V 8.4293381 H 16 2.9767442 V 16 23.570662 H 16 29.023256 Z"
     id="path4" />
  <path
     style="fill:#803300;fill-rule:evenodd;stroke-width:0.0285939;stroke-linejoin:bevel;paint-order:markers fill stroke"
     d="m 5.9248658,16 v -4.62254 h 1.3419659 1.3419658 l 1.3651737,1.704656 c 0.7508458,0.937561 1.3802348,1.69991 1.3986428,1.694108 0.01841,-0.0058 0.613075,-0.733174 1.321483,-1.616384 0.708407,-0.883209 1.313774,-1.637896 1.345259,-1.677081 l 0.05724,-0.07124 1.352415,-0.01716 1.352415,-0.01716 v 4.622671 4.622671 h -1.345112 -1.345113 l -0.0073,-2.680473 -0.0073,-2.680473 -1.193241,1.485482 c -1.595778,1.986606 -1.523997,1.898144 -1.540212,1.898144 -0.0079,0 -0.0891,-0.09285 -0.180503,-0.206331 -0.09141,-0.113482 -0.703213,-0.874797 -1.3595709,-1.691811 l -1.1933782,-1.485481 -0.0073,2.680472 -0.0073,2.680471 H 7.2699785 5.9248658 Z"
     id="path1" />
  <path
     style="fill:#aa4400;fill-rule:evenodd;stroke-width:0.0285939;stroke-linejoin:bevel;paint-order:markers fill stroke"
     d="m 22.607717,20.186516 c -0.44005,-0.46999 -1.246386,-1.351305 -2.599531,-2.841257 l -1.039778,-1.144901 1.313649,-0.01694 c 0.722507,-0.0093 1.31687,-0.01898 1.320805,-0.02147 0.0039,-0.0025 0.0072,-1.080014 0.0072,-2.394504 V 11.37746 h 1.345259 1.34526 v 2.389982 c 0,1.31449 0.0032,2.391902 0.0072,2.394248 0.0039,0.0023 0.598386,0.01201 1.321,0.02147 l 1.313844,0.0172 -1.783412,1.960644 c -0.980877,1.078354 -1.876217,2.060676 -1.989645,2.182938 l -0.206231,0.222295 z"
     id="path5" />
  <path
     style="fill:#aa4400;fill-rule:evenodd;stroke-width:0.0285939;stroke-linejoin:bevel;paint-order:markers fill stroke"
     d="m 5.9248658,16 v -4.62254 l 1.3381038,0.0016 1.3381037,0.0016 1.0096393,1.264994 c 1.0793014,1.352275 1.7081114,2.118129 1.7509974,2.132614 0.03297,0.01114 0.260253,-0.263136 1.632149,-1.969588 l 1.093022,-1.359571 0.252905,-0.02018 c 0.139097,-0.0111 0.749878,-0.02398 1.357291,-0.02862 l 1.104386,-0.0084 -1.6e-5,4.615385 -1.6e-5,4.615384 h -1.345113 -1.345114 l -0.0073,-2.691563 -0.0073,-2.691563 -1.316637,1.635256 c -0.72415,0.899391 -1.339177,1.663009 -1.366726,1.69693 l -0.05009,0.06167 -0.05009,-0.06193 c -0.02755,-0.03406 -0.642576,-0.798161 -1.3667263,-1.698003 L 8.6296979,15.2374 l -0.0073,2.692636 -0.0073,2.692635 H 7.2699792 5.9248658 Z"
     id="path6" />
  <path
     style="fill:#aa4400;fill-rule:evenodd;stroke-width:0.0285939;stroke-linejoin:bevel;paint-order:markers fill stroke"
     d="m 22.739691,20.303023 c -0.268678,-0.280889 -1.324997,-1.432899 -2.725199,-2.972075 l -1.002471,-1.101968 0.561968,-0.01759 c 0.309082,-0.0097 0.893632,-0.01933 1.298998,-0.02147 l 0.737031,-0.0039 V 13.781753 11.37746 h 1.345259 1.34526 v 2.404293 2.404294 l 0.751341,0.0038 c 0.413238,0.0021 0.997988,0.01175 1.299445,0.02147 l 0.548103,0.01766 -0.261878,0.286783 c -0.144032,0.157731 -0.976506,1.072221 -1.849942,2.032201 -0.873435,0.959979 -1.640174,1.801276 -1.703865,1.869549 l -0.115801,0.124131 z"
     id="path7" />
  <path
     style="fill:#ff9955;fill-rule:evenodd;stroke-width:0.0285939;stroke-linejoin:bevel;paint-order:markers fill stroke"
     d="M 2.0035778,16 V 7.4561717 H 16 29.996422 V 16 24.543828 H 16 2.0035778 Z M 29.023256,16 V 8.4293381 H 16 2.9767442 V 16 23.570662 H 16 29.023256 Z"
     id="path8" />
  <path
     style="fill:#ff9955;fill-rule:evenodd;stroke-width:0.0285939;stroke-linejoin:bevel;paint-order:markers fill stroke"
     d="m 5.9248658,16 v -4.62254 l 1.1091235,1.71e-4 c 0.6100179,9.5e-5 1.2157519,0.0085 1.3460757,0.01862 l 0.2369522,0.01844 0.3586694,0.453655 c 0.1972682,0.249511 0.3715429,0.453656 0.3872773,0.453656 0.015734,0 0.021285,0.01185 0.012335,0.02633 -0.00895,0.01448 0.015613,0.05141 0.054585,0.08207 0.038972,0.03065 0.064177,0.06242 0.056011,0.07058 -0.00817,0.0082 0.017594,0.04037 0.057245,0.07156 0.039651,0.03119 0.065411,0.06339 0.057245,0.07156 -0.00817,0.0082 0.017594,0.04037 0.057245,0.07156 0.039651,0.03119 0.065411,0.06339 0.057245,0.07156 -0.00817,0.0082 0.017594,0.04037 0.057245,0.07156 0.039651,0.03119 0.065411,0.06339 0.057245,0.07156 -0.00817,0.0082 0.017594,0.04037 0.057245,0.07156 0.039651,0.03119 0.065411,0.06339 0.057245,0.07156 -0.00817,0.0082 0.017594,0.04037 0.057245,0.07156 0.03965,0.03119 0.06541,0.06339 0.05724,0.07156 -0.0082,0.0082 0.02125,0.04324 0.06537,0.07795 0.04412,0.03471 0.07378,0.06645 0.06591,0.07055 -0.01613,0.0084 1.059917,1.331219 1.130584,1.389866 0.03905,0.03241 0.06144,0.02218 0.158181,-0.07228 0.06198,-0.06052 0.1072,-0.115528 0.10049,-0.122237 -0.0067,-0.0067 0.02576,-0.04414 0.07216,-0.08318 0.0464,-0.03904 0.07712,-0.08269 0.06828,-0.097 -0.0088,-0.01431 -0.0034,-0.02601 0.01209,-0.02601 0.03085,0 0.956049,-1.129366 0.949478,-1.158998 -0.0022,-0.01005 0.02949,-0.04466 0.07049,-0.07691 0.041,-0.03225 0.06786,-0.06531 0.05969,-0.07348 -0.0082,-0.0082 0.01704,-0.03993 0.05601,-0.07058 0.03897,-0.03066 0.06354,-0.06759 0.05458,-0.08207 -0.0089,-0.01448 -0.0028,-0.02633 0.01368,-0.02633 0.01648,0 0.282612,-0.315564 0.591413,-0.701252 0.308801,-0.385689 0.563344,-0.702451 0.565651,-0.703917 0.0226,-0.01435 2.067114,-0.06677 2.344087,-0.0601 l 0.364937,0.0088 v 4.606593 4.606593 h -1.345259 -1.34526 v -2.695508 -2.695508 l -0.07067,0.06639 c -0.03887,0.03652 -0.06387,0.0774 -0.05556,0.09086 0.0083,0.01345 0.0021,0.02446 -0.01382,0.02446 -0.01592,0 -0.604325,0.714848 -1.30757,1.588551 -0.703244,0.873703 -1.287881,1.588551 -1.299193,1.588551 -0.01131,0 -0.624739,-0.752729 -1.363172,-1.672731 -0.7384331,-0.920002 -1.3522658,-1.673491 -1.3640726,-1.674419 -0.011807,-9.28e-4 -0.021467,1.209046 -0.021467,2.688831 V 20.62254 H 7.2701252 5.9248658 Z"
     id="path9" />
  <path
     style="fill:#71c837;fill-rule:evenodd;stroke-width:0.0285939;stroke-linejoin:bevel;paint-order:markers fill stroke"
     d="m 22.513966,20.069314 c -0.330412,-0.35817 -1.959899,-2.144564 -3.400711,-3.72817 l -0.10678,-0.117363 0.66492,-0.0188 c 0.365706,-0.01034 0.951503,-0.01883 1.301771,-0.01887 l 0.636852,-6.5e-5 V 13.781753 11.37746 h 1.345259 1.34526 v 2.404293 2.404294 l 0.808586,0.0035 c 0.444723,0.0019 1.029956,0.01158 1.300518,0.02147 l 0.491931,0.01798 -0.835402,0.917417 c -0.45947,0.504579 -1.342169,1.47381 -1.961553,2.153846 -0.619384,0.680036 -1.13459,1.235421 -1.144902,1.234188 -0.01031,-0.0012 -0.210899,-0.210536 -0.445749,-0.465117 z"
     id="path10" />
  <path
     style="fill:#71c837;fill-rule:evenodd;stroke-width:0.0285939;stroke-linejoin:bevel;paint-order:markers fill stroke"
     d="m 5.9248658,15.996716 v -4.625825 l 1.2379249,0.01885 c 0.6808587,0.01037 1.2859043,0.0258 1.3445457,0.0343 0.096604,0.014 0.1359816,0.05221 0.4191291,0.40662 0.1718795,0.215141 0.3396426,0.415701 0.3728066,0.44569 0.033164,0.02999 0.060299,0.06595 0.060299,0.0799 0,0.0245 0.6282716,0.821901 0.7623239,0.967538 0.03623,0.03936 0.126718,0.148838 0.201094,0.243292 0.482148,0.612308 0.995856,1.216458 1.034353,1.216458 0.04209,0 0.349242,-0.306039 0.349266,-0.348 6e-6,-0.01036 0.09227,-0.125776 0.205024,-0.256476 0.112757,-0.130699 0.33367,-0.399144 0.490917,-0.596544 0.157247,-0.197399 0.341914,-0.424698 0.410372,-0.505107 0.06846,-0.08041 0.124467,-0.155011 0.124467,-0.165782 0,-0.01077 0.08056,-0.112423 0.179019,-0.225894 0.09846,-0.113471 0.363089,-0.434934 0.588064,-0.714362 0.372848,-0.463092 0.416977,-0.50805 0.498683,-0.50805 0.0493,0 0.597635,-0.01412 1.218519,-0.03137 0.620884,-0.01725 1.185328,-0.0229 1.254319,-0.01256 l 0.125439,0.01881 v 4.592164 4.592164 h -1.345259 -1.34526 l -0.001,-2.711985 -10e-4,-2.711986 -0.0572,0.07156 c -0.03146,0.03936 -0.189323,0.232558 -0.350804,0.429338 -0.161482,0.19678 -0.653067,0.802147 -1.092412,1.34526 -0.439346,0.543112 -0.895262,1.103399 -1.013149,1.24508 -0.117886,0.141682 -0.218477,0.263103 -0.223535,0.269825 -0.0051,0.0067 -0.02516,-0.008 -0.04468,-0.03266 -0.05675,-0.07178 -2.4056094,-2.969392 -2.5414528,-3.135197 -0.067713,-0.08265 -0.1337171,-0.150268 -0.1466759,-0.150268 -0.012959,0 -0.023561,1.210733 -0.023561,2.690518 V 20.62254 H 7.2701252 5.9248658 Z"
     id="path11" />
  <path
     style="fill:#71c837;fill-rule:evenodd;stroke-width:0.0285939;stroke-linejoin:bevel;paint-order:markers fill stroke"
     d="m 22.711986,20.258727 c -0.125939,-0.136107 -0.999382,-1.09204 -1.940984,-2.124296 l -1.712003,-1.876828 0.137764,-0.01896 c 0.07577,-0.01043 0.396515,-0.02009 0.712767,-0.02147 0.316252,-0.0014 0.828237,-0.01099 1.137746,-0.02135 l 0.562742,-0.01885 V 13.777218 11.37746 h 1.345259 1.34526 v 2.400216 2.400216 l 0.175934,0.01839 c 0.09676,0.01011 0.563668,0.01847 1.037567,0.01856 0.473898,9.4e-5 0.96736,0.0084 1.096581,0.01846 l 0.234949,0.01829 -0.05113,0.065 c -0.05695,0.0724 -1.964217,2.168641 -3.090932,3.397185 -0.400643,0.436851 -0.736115,0.793857 -0.745493,0.793347 -0.0094,-5.1e-4 -0.120091,-0.112288 -0.24603,-0.248395 z"
     id="path12" />
  <path
     style="fill:#892ca0;fill-rule:evenodd;stroke-width:0.0285939;stroke-linejoin:bevel;paint-order:markers fill stroke"
     d="M 2.0035778,16 V 7.4561717 H 16 29.996422 V 16 24.543828 H 16 2.0035778 Z M 29.023256,16 V 8.4293381 H 16 2.9767442 V 16 23.570662 H 16 29.023256 Z"
     id="path13" />
  <path
     style="fill:#892ca0;fill-rule:evenodd;stroke-width:0.0285939;stroke-linejoin:bevel;paint-order:markers fill stroke"
     d="m 5.9248658,16.000806 v -4.621735 l 0.7942755,0.01428 c 1.3437565,0.02416 1.8229279,0.04465 1.8706579,0.07998 0.057897,0.04285 0.6956437,0.815555 1.1055033,1.339439 0.8437425,1.078475 1.5981905,1.97077 1.6663155,1.97077 0.02753,0 0.119643,-0.07545 0.204687,-0.167662 0.161973,-0.17563 0.198466,-0.21994 0.922689,-1.120352 1.213193,-1.50834 1.583915,-1.953218 1.662266,-1.99477 0.0463,-0.02456 0.424875,-0.0366 1.350103,-0.04293 l 1.285757,-0.0088 0.0072,4.586762 0.0072,4.586762 h -1.345202 -1.345203 l -0.0073,-2.717179 -0.0073,-2.717179 -0.572451,0.705237 c -1.589785,1.958556 -2.138332,2.625365 -2.159742,2.625365 -0.01293,0 -0.586761,-0.695528 -1.275178,-1.545618 -1.2504379,-1.544099 -1.4075847,-1.731663 -1.4508376,-1.731663 -0.012654,0 -0.023008,1.210733 -0.023008,2.690518 V 20.62254 H 7.2701252 5.9248658 Z"
     id="path14" />
  <path
     style="fill:#9955ff;fill-rule:evenodd;stroke-width:0.0285939;stroke-linejoin:bevel;paint-order:markers fill stroke"
     d="m 22.70755,20.255187 c -0.128379,-0.138612 -1.002354,-1.094774 -1.942167,-2.124803 l -1.708752,-1.872781 0.138948,-0.01896 c 0.07642,-0.01043 0.397699,-0.02009 0.713951,-0.02147 0.316252,-0.0014 0.828237,-0.01099 1.137746,-0.02135 l 0.562742,-0.01885 V 13.777218 11.37746 h 1.345259 1.34526 v 2.400216 2.400216 l 0.175934,0.01839 c 0.09676,0.01011 0.589429,0.01989 1.094812,0.02173 0.505383,0.0018 1.001358,0.0115 1.102166,0.02147 l 0.183288,0.01812 -1.068172,1.173524 c -1.756185,1.929396 -2.811896,3.076949 -2.83028,3.076503 -0.0095,-2.31e-4 -0.122356,-0.11383 -0.250735,-0.252442 z"
     id="path15" />
  <path
     style="fill:#9955ff;fill-rule:evenodd;stroke-width:0.0285939;stroke-linejoin:bevel;paint-order:markers fill stroke"
     d="m 5.9248658,16.014311 v -4.608229 l 0.5939177,4.69e-4 c 0.3266548,2.58e-4 0.9146722,0.01292 1.3067054,0.02815 0.6154992,0.0239 0.7206068,0.03458 0.7700752,0.07824 0.086462,0.07631 0.6498885,0.759773 1.3472664,1.634293 0.9802085,1.229194 1.3354665,1.636305 1.4278915,1.636305 0.08354,0 0.279165,-0.223269 1.266454,-1.445438 1.064495,-1.317744 1.400772,-1.718995 1.505164,-1.79599 0.06982,-0.05149 0.152452,-0.05585 1.352415,-0.07127 l 1.278054,-0.01642 1.48e-4,4.304989 c 8.1e-5,2.367745 0.0085,4.430571 0.01863,4.584059 l 0.01848,0.27907 h -1.349576 -1.349577 v -2.719141 c 0,-1.495528 -0.0097,-2.718331 -0.02147,-2.71734 -0.01181,9.91e-4 -0.214669,0.242001 -0.450805,0.535576 -0.620066,0.770897 -2.051567,2.519763 -2.17241,2.654036 l -0.103039,0.11449 -0.08793,-0.100179 c -0.04836,-0.0551 -0.455391,-0.550984 -0.904504,-1.101968 -1.3620854,-1.67104 -1.677117,-2.046511 -1.717085,-2.046511 -0.031693,0 -0.038284,0.463248 -0.038284,2.690518 v 2.69052 H 7.2701252 5.9248658 Z"
     id="path16" />
  <path
     style="fill:#9955ff;fill-rule:evenodd;stroke-width:0.0285939;stroke-linejoin:bevel;paint-order:markers fill stroke"
     d="M 2.0035778,16 V 7.4561717 H 16 29.996422 V 16 24.543828 H 16 2.0035778 Z M 29.023256,16 V 8.4293381 H 16 2.9767442 V 16 23.570662 H 16 29.023256 Z"
     id="path17" />
  <metadata
     id="metadata17">
    <rdf:RDF>
      <cc:Work
         rdf:about="">
        <dc:title>file_type_markdown</dc:title>
      </cc:Work>
    </rdf:RDF>
  </metadata>
</svg>
