<svg width="14" height="14" viewBox="0 0 14 14" fill="none" xmlns="http://www.w3.org/2000/svg">
<path d="M7.49999 2L7.85765 1.65059L7.33502 1.11564L7.04042 1.80304L5.83134 4.62424L4.85355 3.64645L4.39487 3.18777L4.06808 3.74811L4.49999 4C4.06808 3.74811 4.06803 3.74818 4.06798 3.74827L4.06785 3.7485L4.06748 3.74913L4.06635 3.75109L4.06247 3.7578L4.04857 3.78209C4.03666 3.80301 4.01959 3.83329 3.99809 3.87212C3.95511 3.94978 3.89434 4.0618 3.82173 4.20187C3.67669 4.48162 3.48335 4.87523 3.2897 5.33173C2.90933 6.22838 2.5 7.43071 2.5 8.5C2.5 10.8516 4.58698 12.5 6.99999 12.5C9.41301 12.5 11.5 10.8516 11.5 8.5C11.5 6.87577 10.5419 5.14013 9.66072 3.87083C9.21089 3.22292 8.76206 2.67006 8.42592 2.2793C8.25762 2.08364 8.11696 1.92792 8.01776 1.82046C7.96814 1.76672 7.92884 1.72501 7.9016 1.69636L7.86996 1.6633L7.86131 1.65435L7.85884 1.65182L7.85808 1.65104L7.85782 1.65078C7.85773 1.65068 7.85765 1.65059 7.49999 2Z" stroke="#DB3B4B"/>
<path d="M5.5 10C5.5097 9.15096 6.29769 8.2022 6.9999 7.5C7.7021 8.2022 8.4903 9.15096 8.5 10" stroke="#DB3B4B" stroke-linecap="round"/>
</svg>
