<!-- Copyright 2000-2024 JetBrains s.r.o. and contributors. Use of this source code is governed by the Apache 2.0 license. -->
<svg width="16" height="16" viewBox="0 0 16 16" fill="none" xmlns="http://www.w3.org/2000/svg">
<path d="M2.67025 6.77975H1.26775V5.95525H2.04975C2.22825 5.95525 2.38267 5.91842 2.513 5.84475C2.64617 5.77108 2.74675 5.66625 2.81475 5.53025C2.88558 5.39425 2.921 5.23417 2.921 5.05H2.92525H3.66475V11H2.67025V6.77975ZM5.27024 10.2137L7.68424 8.02925C7.90241 7.82808 8.06107 7.634 8.16024 7.447C8.26224 7.25717 8.31324 7.05742 8.31324 6.84775C8.31324 6.64658 8.26791 6.47092 8.17724 6.32075C8.08941 6.16775 7.96474 6.04875 7.80324 5.96375C7.64174 5.87875 7.45616 5.83625 7.24649 5.83625C7.02266 5.83625 6.82291 5.88442 6.64724 5.98075C6.47441 6.07425 6.33841 6.20742 6.23924 6.38025C6.14291 6.55308 6.09474 6.75 6.09474 6.971H5.10024C5.10024 6.58567 5.19232 6.24 5.37649 5.934C5.56349 5.62517 5.82132 5.38433 6.14999 5.2115C6.48149 5.03583 6.85266 4.948 7.26349 4.948C7.65449 4.948 8.00724 5.02733 8.32174 5.186C8.63624 5.34183 8.88132 5.55858 9.05699 5.83625C9.23549 6.11392 9.32474 6.427 9.32474 6.7755C9.32474 7.10417 9.23832 7.42008 9.06549 7.72325C8.89266 8.02358 8.62491 8.33383 8.26224 8.654L6.66849 10.1117H9.48624V11H5.27024V10.2137ZM12.4756 11.102C12.0676 11.102 11.6992 11.0241 11.3706 10.8682C11.0419 10.7124 10.7812 10.4957 10.5886 10.218C10.3959 9.9375 10.2953 9.62017 10.2868 9.266H11.2898C11.3011 9.453 11.3592 9.62158 11.4641 9.77175C11.5717 9.91908 11.7148 10.0352 11.8933 10.1202C12.0718 10.2024 12.2687 10.2435 12.4841 10.2435C12.7164 10.2435 12.9232 10.1967 13.1046 10.1032C13.2859 10.0097 13.4276 9.88083 13.5296 9.7165C13.6316 9.54933 13.6826 9.36092 13.6826 9.15125C13.6826 8.93592 13.6301 8.74467 13.5253 8.5775C13.4233 8.41033 13.2788 8.28 13.0918 8.1865C12.9076 8.09017 12.6994 8.042 12.4671 8.042H11.7276V7.311L13.2661 5.89575H10.6056V5.05H14.4816V5.798L12.4756 7.62125V7.28125C12.9034 7.27275 13.2845 7.34783 13.6188 7.5065C13.956 7.66517 14.2195 7.89042 14.4093 8.18225C14.5991 8.47125 14.6941 8.80417 14.6941 9.181C14.6941 9.55217 14.5991 9.88367 14.4093 10.1755C14.2195 10.4673 13.956 10.6954 13.6188 10.8598C13.2845 11.0213 12.9034 11.102 12.4756 11.102Z" fill="#6C707E"/>
<path d="M1.5 2C1.22386 2 1 2.22386 1 2.5C1 2.77614 1.22386 3 1.5 3V2ZM14.5 3C14.7761 3 15 2.77614 15 2.5C15 2.22386 14.7761 2 14.5 2V3ZM1.5 3H14.5V2H1.5V3Z" fill="#6C707E"/>
<path d="M1.5 13C1.22386 13 1 13.2239 1 13.5C1 13.7761 1.22386 14 1.5 14V13ZM14.5 14C14.7761 14 15 13.7761 15 13.5C15 13.2239 14.7761 13 14.5 13V14ZM1.5 14H14.5V13H1.5V14Z" fill="#6C707E"/>
</svg>
