<!-- Copyright 2000-2024 JetBrains s.r.o. and contributors. Use of this source code is governed by the Apache 2.0 license. -->
<svg width="16" height="16" viewBox="0 0 16 16" fill="none" xmlns="http://www.w3.org/2000/svg">
<path d="M2.6745 11V6.77975H1.272V5.95525H2.054C2.2325 5.95525 2.38692 5.91842 2.51725 5.84475C2.65042 5.77108 2.751 5.66625 2.819 5.53025C2.88983 5.39425 2.92525 5.23417 2.92525 5.05H2.9295H3.669V11H2.6745ZM5.29939 11V10.2137L7.71764 8.02925C7.93297 7.82808 8.09022 7.634 8.18939 7.447C8.29139 7.25717 8.34239 7.05742 8.34239 6.84775C8.34239 6.64658 8.29706 6.47092 8.20639 6.32075C8.11856 6.16775 7.99389 6.04875 7.83239 5.96375C7.67089 5.87875 7.48531 5.83625 7.27564 5.83625C7.05181 5.83625 6.85206 5.88442 6.67639 5.98075C6.50356 6.07425 6.36756 6.20742 6.26839 6.38025C6.17206 6.55308 6.12389 6.75 6.12389 6.971H5.12939C5.12939 6.58567 5.22147 6.24 5.40564 5.934C5.59264 5.62517 5.85047 5.38433 6.17914 5.2115C6.51064 5.03583 6.88181 4.948 7.29264 4.948C7.68647 4.948 8.03922 5.02733 8.35089 5.186C8.66539 5.34183 8.91047 5.55858 9.08614 5.83625C9.26464 6.11392 9.35389 6.427 9.35389 6.7755C9.35389 7.10417 9.26747 7.42008 9.09464 7.72325C8.92181 8.02358 8.65406 8.33383 8.29139 8.654L6.69764 10.1117H9.51539V11H5.29939ZM12.5213 11.102C12.1133 11.102 11.745 11.0241 11.4163 10.8682C11.0877 10.7124 10.827 10.4957 10.6343 10.218C10.4417 9.9375 10.3397 9.62017 10.3283 9.266H11.3313C11.3427 9.453 11.4022 9.62158 11.5098 9.77175C11.6175 9.91908 11.7606 10.0352 11.9391 10.1202C12.1176 10.2024 12.3145 10.2435 12.5298 10.2435C12.7593 10.2435 12.9647 10.1967 13.1461 10.1032C13.3302 10.0097 13.4733 9.88083 13.5753 9.7165C13.6773 9.54933 13.7283 9.36092 13.7283 9.15125C13.7283 8.93592 13.6759 8.74467 13.5711 8.5775C13.4662 8.41033 13.3217 8.28 13.1376 8.1865C12.9534 8.09017 12.7437 8.042 12.5086 8.042H11.7733V7.311L13.3118 5.89575H10.6513V5.05H14.5231V5.798L12.5213 7.62125V7.28125C12.9492 7.27275 13.3302 7.34783 13.6646 7.5065C14.0017 7.66517 14.2638 7.89042 14.4508 8.18225C14.6407 8.47125 14.7356 8.80417 14.7356 9.181C14.7356 9.55217 14.6407 9.88367 14.4508 10.1755C14.2638 10.4673 14.0017 10.6954 13.6646 10.8598C13.3302 11.0213 12.9492 11.102 12.5213 11.102Z" fill="#CED0D6"/>
<path d="M1.5 2C1.22386 2 1 2.22386 1 2.5C1 2.77614 1.22386 3 1.5 3V2ZM14.5 3C14.7761 3 15 2.77614 15 2.5C15 2.22386 14.7761 2 14.5 2V3ZM1.5 3H14.5V2H1.5V3Z" fill="#CED0D6"/>
<path d="M1.5 13C1.22386 13 1 13.2239 1 13.5C1 13.7761 1.22386 14 1.5 14V13ZM14.5 14C14.7761 14 15 13.7761 15 13.5C15 13.2239 14.7761 13 14.5 13V14ZM1.5 14H14.5V13H1.5V14Z" fill="#CED0D6"/>
</svg>
