<!-- Copyright 2000-2024 JetBrains s.r.o. and contributors. Use of this source code is governed by the Apache 2.0 license. -->
<svg width="16" height="16" viewBox="0 0 16 16" fill="none" xmlns="http://www.w3.org/2000/svg">
<path d="M3.5 14C3.77614 14 4 13.7761 4 13.5C4 13.2239 3.77614 13 3.5 13V14ZM3.5 3C3.77614 3 4 2.77614 4 2.5C4 2.22386 3.77614 2 3.5 2V3ZM3.5 13H2.5V14H3.5V13ZM2 12.5V3.5H1V12.5H2ZM2.5 3H3.5V2H2.5V3ZM2 3.5C2 3.22386 2.22386 3 2.5 3V2C1.67157 2 1 2.67157 1 3.5H2ZM2.5 13C2.22386 13 2 12.7761 2 12.5H1C1 13.3284 1.67157 14 2.5 14V13Z" fill="#CED0D6"/>
<path d="M12.5 13C12.2239 13 12 13.2239 12 13.5C12 13.7761 12.2239 14 12.5 14V13ZM12.5 2C12.2239 2 12 2.22386 12 2.5C12 2.77614 12.2239 3 12.5 3V2ZM13.5 13H12.5V14H13.5V13ZM15 12.5V3.5H14V12.5H15ZM13.5 2H12.5V3H13.5V2ZM15 3.5C15 2.67157 14.3284 2 13.5 2V3C13.7761 3 14 3.22386 14 3.5H15ZM13.5 14C14.3284 14 15 13.3284 15 12.5H14C14 12.7761 13.7761 13 13.5 13V14Z" fill="#CED0D6"/>
<path d="M4.5 7.5C4.22386 7.5 4 7.72386 4 8C4 8.27614 4.22386 8.5 4.5 8.5V7.5ZM11.5 8.5C11.7761 8.5 12 8.27614 12 8C12 7.72386 11.7761 7.5 11.5 7.5V8.5ZM4.5 8.5H11.5V7.5H4.5V8.5Z" fill="#CED0D6"/>
<path d="M4.5 10C4.22386 10 4 10.2239 4 10.5C4 10.7761 4.22386 11 4.5 11V10ZM11.5 11C11.7761 11 12 10.7761 12 10.5C12 10.2239 11.7761 10 11.5 10V11ZM4.5 11H11.5V10H4.5V11Z" fill="#CED0D6"/>
<path d="M4.5 5C4.22386 5 4 5.22386 4 5.5C4 5.77614 4.22386 6 4.5 6V5ZM11.5 6C11.7761 6 12 5.77614 12 5.5C12 5.22386 11.7761 5 11.5 5V6ZM4.5 6H11.5V5H4.5V6Z" fill="#CED0D6"/>
</svg>
