<?xml version="1.0" encoding="UTF-8" standalone="no"?>
<svg
   width="16"
   height="16"
   viewBox="0 0 16 16"
   fill="none"
   version="1.1"
   id="svg1053"
   sodipodi:docname="symbol-trait.svg"
   inkscape:version="1.2.1 (9c6d41e410, 2022-07-14, custom)"
   xmlns:inkscape="http://www.inkscape.org/namespaces/inkscape"
   xmlns:sodipodi="http://sodipodi.sourceforge.net/DTD/sodipodi-0.dtd"
   xmlns="http://www.w3.org/2000/svg"
   xmlns:svg="http://www.w3.org/2000/svg">
  <defs
     id="defs1057" />
  <sodipodi:namedview
     id="namedview1055"
     pagecolor="#ffffff"
     bordercolor="#666666"
     borderopacity="1.0"
     inkscape:showpageshadow="2"
     inkscape:pageopacity="0.0"
     inkscape:pagecheckerboard="0"
     inkscape:deskcolor="#d1d1d1"
     showgrid="false"
     inkscape:zoom="39.4375"
     inkscape:cx="7.9873217"
     inkscape:cy="8.0380349"
     inkscape:window-width="1280"
     inkscape:window-height="1371"
     inkscape:window-x="20"
     inkscape:window-y="20"
     inkscape:window-maximized="0"
     inkscape:current-layer="svg1053" />
  <path
     d="M11.4965 4C10.655 3.9989 9.84136 4.30189 9.20557 4.85315C8.56977 5.40442 8.15465 6.16684 8.0365 7H4.9364C4.8147 6.52867 4.52533 6.11794 4.12244 5.84473C3.71955 5.57152 3.23083 5.45466 2.74792 5.51599C2.26502 5.57733 1.82106 5.81261 1.49927 6.17786C1.17747 6.54311 1 7.01322 1 7.5C1 7.98679 1.17747 8.45689 1.49927 8.82215C1.82106 9.1874 2.26502 9.42267 2.74792 9.48401C3.23083 9.54535 3.71955 9.42848 4.12244 9.15528C4.52533 8.88207 4.8147 8.47133 4.9364 8H8.0365C8.13236 8.66418 8.41717 9.28683 8.85693 9.7937C9.2967 10.3006 9.87284 10.6703 10.5168 10.8589C11.1609 11.0475 11.8455 11.047 12.4893 10.8574C13.133 10.6679 13.7087 10.2973 14.1477 9.7898C14.5867 9.28227 14.8706 8.65919 14.9655 7.99488C15.0603 7.33056 14.9621 6.65298 14.6827 6.04285C14.4034 5.43272 13.9545 4.91578 13.3895 4.55359C12.8246 4.19141 12.1675 3.99922 11.4965 4V4ZM11.4965 10C11.002 10 10.5187 9.85332 10.1075 9.57862C9.69642 9.30391 9.37599 8.91348 9.18677 8.45667C8.99755 7.99985 8.94809 7.49728 9.04456 7.01233C9.14102 6.52738 9.37901 6.08181 9.72864 5.73218C10.0783 5.38255 10.5238 5.14456 11.0088 5.0481C11.4937 4.95164 11.9963 5.00109 12.4531 5.19031C12.9099 5.37953 13.3004 5.69996 13.5751 6.11109C13.8498 6.52221 13.9965 7.00555 13.9965 7.5C13.9965 8.16304 13.7331 8.79898 13.2643 9.26783C12.7954 9.73667 12.1595 10 11.4965 10V10Z"
     fill="#75BEFF"
     id="path1051"
     style="fill:#55d400" />
  <path
     style="fill:#55d400;fill-opacity:0;stroke-width:0.0253566"
     d="M 11.169572,10.976222 C 10.307888,10.866797 9.6212767,10.537522 9.0381581,9.9540709 8.540536,9.4561648 8.2073706,8.8349444 8.0750643,8.1582864 l -0.031025,-0.1586708 -1.5570179,0.00653 -1.5570175,0.00653 -0.083533,0.2071779 C 4.6352811,8.7436516 4.2333723,9.1446717 3.7134737,9.350348 3.4655571,9.448426 3.273641,9.48128 2.9667195,9.4781847 2.0717781,9.4691588 1.3082599,8.8661348 1.0751533,7.9842323 1.0062751,7.7236483 1.0015138,7.3015001 1.0646066,7.0491284 1.3792407,5.7905886 2.7454861,5.1535315 3.8922467,5.7306476 4.3527397,5.9623942 4.7126337,6.3765209 4.879059,6.8661634 l 0.044951,0.1322518 1.560444,0.00653 1.560444,0.00653 0.031599,-0.1713494 C 8.1230932,6.5874624 8.2591582,6.1872188 8.3810759,5.9441937 8.8637961,4.9819604 9.7427532,4.3097099 10.823219,4.0763755 c 0.298204,-0.064399 1.061584,-0.063025 1.359589,0.00245 1.261411,0.2771354 2.22438,1.1325324 2.62589,2.3325542 0.125787,0.3759469 0.172005,0.6755868 0.170727,1.1068479 -0.0028,0.9472003 -0.348131,1.7665017 -1.031631,2.4476019 -0.50914,0.5073535 -1.068464,0.8079045 -1.77186,0.9521045 -0.250307,0.05132 -0.807261,0.08357 -1.006362,0.05829 z M 12.171157,9.9181477 C 13.223334,9.6171768 13.941178,8.715146 14.000323,7.6196513 14.065251,6.4170318 13.25934,5.3487217 12.064836,5.0539837 11.73021,4.9714162 11.223699,4.9773369 10.879781,5.067836 10.14004,5.2624931 9.5552401,5.7467469 9.229508,6.4343739 9.0797873,6.7504373 9.0156932,7.0086002 8.9969192,7.3712094 c -0.052132,1.006917 0.4774985,1.920127 1.3764818,2.3733819 0.390135,0.1967006 0.691673,0.2595347 1.189198,0.2478032 0.314428,-0.00741 0.419901,-0.020282 0.608558,-0.074247 z"
     id="path2798" />
  <path
     style="fill:#55d400;fill-opacity:0;stroke-width:0.0253566"
     d="M 11.169572,10.976222 C 10.307888,10.866797 9.6212767,10.537522 9.0381581,9.9540709 8.540536,9.4561648 8.2073706,8.8349444 8.0750643,8.1582864 l -0.031025,-0.1586708 -1.5570179,0.00653 -1.5570175,0.00653 -0.083533,0.2071779 C 4.6352811,8.7436516 4.2333723,9.1446717 3.7134737,9.350348 3.4655571,9.448426 3.273641,9.48128 2.9667195,9.4781847 2.0717781,9.4691588 1.3082599,8.8661348 1.0751533,7.9842323 1.0062751,7.7236483 1.0015138,7.3015001 1.0646066,7.0491284 1.3792407,5.7905886 2.7454861,5.1535315 3.8922467,5.7306476 4.3527397,5.9623942 4.7126337,6.3765209 4.879059,6.8661634 l 0.044951,0.1322518 1.560444,0.00653 1.560444,0.00653 0.031599,-0.1713494 C 8.1230932,6.5874624 8.2591582,6.1872188 8.3810759,5.9441937 8.8637961,4.9819604 9.7427532,4.3097099 10.823219,4.0763755 c 0.298204,-0.064399 1.061584,-0.063025 1.359589,0.00245 1.261411,0.2771354 2.22438,1.1325324 2.62589,2.3325542 0.125787,0.3759469 0.172005,0.6755868 0.170727,1.1068479 -0.0028,0.9472003 -0.348131,1.7665017 -1.031631,2.4476019 -0.50914,0.5073535 -1.068464,0.8079045 -1.77186,0.9521045 -0.250307,0.05132 -0.807261,0.08357 -1.006362,0.05829 z M 12.171157,9.9181477 C 13.223334,9.6171768 13.941178,8.715146 14.000323,7.6196513 14.065251,6.4170318 13.25934,5.3487217 12.064836,5.0539837 11.73021,4.9714162 11.223699,4.9773369 10.879781,5.067836 10.14004,5.2624931 9.5552401,5.7467469 9.229508,6.4343739 9.0797873,6.7504373 9.0156932,7.0086002 8.9969192,7.3712094 c -0.052132,1.006917 0.4774985,1.920127 1.3764818,2.3733819 0.390135,0.1967006 0.691673,0.2595347 1.189198,0.2478032 0.314428,-0.00741 0.419901,-0.020282 0.608558,-0.074247 z"
     id="path2800" />
  <path
     style="fill:#55d400;fill-opacity:0;stroke-width:0.0253566"
     d="M 11.169572,10.976222 C 10.307888,10.866797 9.6212767,10.537522 9.0381581,9.9540709 8.540536,9.4561648 8.2073706,8.8349444 8.0750643,8.1582864 l -0.031025,-0.1586708 -1.5570179,0.00653 -1.5570175,0.00653 -0.083533,0.2071779 C 4.6352811,8.7436516 4.2333723,9.1446717 3.7134737,9.350348 3.4655571,9.448426 3.273641,9.48128 2.9667195,9.4781847 2.0717781,9.4691588 1.3082599,8.8661348 1.0751533,7.9842323 1.0062751,7.7236483 1.0015138,7.3015001 1.0646066,7.0491284 1.3792407,5.7905886 2.7454861,5.1535315 3.8922467,5.7306476 4.3527397,5.9623942 4.7126337,6.3765209 4.879059,6.8661634 l 0.044951,0.1322518 1.560444,0.00653 1.560444,0.00653 0.031599,-0.1713494 C 8.1230932,6.5874624 8.2591582,6.1872188 8.3810759,5.9441937 8.8637961,4.9819604 9.7427532,4.3097099 10.823219,4.0763755 c 0.298204,-0.064399 1.061584,-0.063025 1.359589,0.00245 1.261411,0.2771354 2.22438,1.1325324 2.62589,2.3325542 0.125787,0.3759469 0.172005,0.6755868 0.170727,1.1068479 -0.0028,0.9472003 -0.348131,1.7665017 -1.031631,2.4476019 -0.50914,0.5073535 -1.068464,0.8079045 -1.77186,0.9521045 -0.250307,0.05132 -0.807261,0.08357 -1.006362,0.05829 z M 12.171157,9.9181477 C 13.223334,9.6171768 13.941178,8.715146 14.000323,7.6196513 14.065251,6.4170318 13.25934,5.3487217 12.064836,5.0539837 11.73021,4.9714162 11.223699,4.9773369 10.879781,5.067836 10.14004,5.2624931 9.5552401,5.7467469 9.229508,6.4343739 9.0797873,6.7504373 9.0156932,7.0086002 8.9969192,7.3712094 c -0.052132,1.006917 0.4774985,1.920127 1.3764818,2.3733819 0.390135,0.1967006 0.691673,0.2595347 1.189198,0.2478032 0.314428,-0.00741 0.419901,-0.020282 0.608558,-0.074247 z"
     id="path2802" />
  <path
     style="fill:#55d400;fill-opacity:0;stroke-width:0.0253566"
     d="M 10.941363,10.942003 C 9.8466188,10.75667 8.92695,10.0878 8.4058315,9.0979248 8.2696145,8.8391779 8.1270545,8.4324326 8.0764977,8.1582864 L 8.0448984,7.9869371 6.485744,7.9934687 4.9265899,8 4.8556792,8.1945062 C 4.5789566,8.9535503 3.8230732,9.4812169 3.0100245,9.4829196 2.086353,9.4848535 1.2919309,8.8585864 1.0646066,7.9492868 1.0015138,7.6969151 1.0062751,7.2747669 1.0751533,7.0141829 1.2892886,6.2040537 1.9478555,5.6310232 2.7828843,5.5282564 3.1767282,5.4797861 3.5372686,5.549366 3.9243332,5.7485421 4.3360309,5.960394 4.6884683,6.3600896 4.8586718,6.8081663 l 0.081899,0.2156055 h 1.5511089 1.551109 L 8.084265,6.8126758 C 8.2828333,5.8020615 8.9639582,4.8909683 9.8763867,4.4154793 10.406097,4.1394343 10.878559,4.0241742 11.486529,4.0226748 c 0.438865,-0.00108 0.687356,0.034713 1.061539,0.1529179 0.946939,0.299138 1.772679,1.048725 2.156209,1.957356 0.884157,2.0946791 -0.413526,4.4407653 -2.659903,4.8088513 -0.274508,0.04498 -0.837904,0.04508 -1.103011,2.03e-4 z M 12.11078,9.9304375 C 12.809306,9.7525246 13.381681,9.3018135 13.717251,8.6654387 14.421558,7.3297861 13.782084,5.664391 12.366551,5.1477853 11.75012,4.9228157 11.02342,4.949951 10.44753,5.2194422 9.5581939,5.635613 8.988019,6.5250356 8.9901244,7.4928685 c 0.00358,1.645068 1.5351516,2.8413925 3.1206556,2.437569 z"
     id="path2804" />
  <path
     style="fill:#55d400;fill-opacity:0;stroke-width:0.0253566"
     d="M 11.169572,10.976222 C 10.307888,10.866797 9.6212767,10.537522 9.0381581,9.9540709 8.540536,9.4561648 8.2073706,8.8349444 8.0750643,8.1582864 l -0.031025,-0.1586708 -1.5570179,0.00653 -1.5570175,0.00653 -0.083533,0.2071779 C 4.6352811,8.7436516 4.2333723,9.1446717 3.7134737,9.350348 3.4655571,9.448426 3.273641,9.48128 2.9667195,9.4781847 2.0717781,9.4691588 1.3082599,8.8661348 1.0751533,7.9842323 1.0062751,7.7236483 1.0015138,7.3015001 1.0646066,7.0491284 1.3792407,5.7905886 2.7454861,5.1535315 3.8922467,5.7306476 4.3527397,5.9623942 4.7126337,6.3765209 4.879059,6.8661634 l 0.044951,0.1322518 1.560444,0.00653 1.560444,0.00653 0.031599,-0.1713494 C 8.1230932,6.5874624 8.2591582,6.1872188 8.3810759,5.9441937 8.8637961,4.9819604 9.7427532,4.3097099 10.823219,4.0763755 c 0.298204,-0.064399 1.061584,-0.063025 1.359589,0.00245 1.261411,0.2771354 2.22438,1.1325324 2.62589,2.3325542 0.125787,0.3759469 0.172005,0.6755868 0.170727,1.1068479 -0.0028,0.9472003 -0.348131,1.7665017 -1.031631,2.4476019 -0.50914,0.5073535 -1.068464,0.8079045 -1.77186,0.9521045 -0.250307,0.05132 -0.807261,0.08357 -1.006362,0.05829 z M 12.171157,9.9181477 C 13.223334,9.6171768 13.941178,8.715146 14.000323,7.6196513 14.065251,6.4170318 13.25934,5.3487217 12.064836,5.0539837 11.73021,4.9714162 11.223699,4.9773369 10.879781,5.067836 10.14004,5.2624931 9.5552401,5.7467469 9.229508,6.4343739 9.0797873,6.7504373 9.0156932,7.0086002 8.9969192,7.3712094 c -0.052132,1.006917 0.4774985,1.920127 1.3764818,2.3733819 0.390135,0.1967006 0.691673,0.2595347 1.189198,0.2478032 0.314428,-0.00741 0.419901,-0.020282 0.608558,-0.074247 z"
     id="path2875" />
</svg>
