<?xml version="1.0" encoding="UTF-8" standalone="no"?>
<svg
   width="16"
   height="16"
   viewBox="0 0 16 16"
   fill="none"
   version="1.1"
   id="svg831"
   sodipodi:docname="symbol-class.svg"
   inkscape:version="1.2.1 (9c6d41e410, 2022-07-14, custom)"
   xmlns:inkscape="http://www.inkscape.org/namespaces/inkscape"
   xmlns:sodipodi="http://sodipodi.sourceforge.net/DTD/sodipodi-0.dtd"
   xmlns="http://www.w3.org/2000/svg"
   xmlns:svg="http://www.w3.org/2000/svg">
  <defs
     id="defs835" />
  <sodipodi:namedview
     id="namedview833"
     pagecolor="#ffffff"
     bordercolor="#666666"
     borderopacity="1.0"
     inkscape:showpageshadow="2"
     inkscape:pageopacity="0.0"
     inkscape:pagecheckerboard="0"
     inkscape:deskcolor="#d1d1d1"
     showgrid="false"
     inkscape:zoom="39.4375"
     inkscape:cx="7.0871632"
     inkscape:cy="8.1521395"
     inkscape:window-width="1280"
     inkscape:window-height="1371"
     inkscape:window-x="20"
     inkscape:window-y="20"
     inkscape:window-maximized="0"
     inkscape:current-layer="svg831" />
  <path
     d="M11.34 9.70998H12.05L14.72 7.04005V6.32997L13.38 5.00001H12.68L10.86 6.81007H5.86V5.56007L7.71999 3.70997V3L5.71998 1H5.00001L1 5.00001V5.70997L3 7.70998H3.71003L4.84998 6.56007V12.35L5.34998 12.85H10V13.37L11.33 14.71H12.04L14.7101 12.0401V11.33L13.37 10H12.67L10.81 11.85H5.81001V7.84999H10V8.32997L11.34 9.70998ZM13.0301 6.06007L13.66 6.68995L11.66 8.68996L11.0301 8.06007L13.0301 6.06007ZM13.0301 11.0601L13.66 11.69L11.66 13.69L11.0301 13.0601L13.0301 11.0601ZM3.34998 6.65004L2.06 5.34998L5.34998 2.06006L6.65004 3.34998L3.34998 6.65004Z"
     fill="#EE9D28"
     id="path829" />
  <path
     style="fill:#00ccff;stroke-width:0.0253566"
     d="M 10.6686,14.02835 10.00317,13.362564 V 13.102835 12.843106 H 7.6889288 5.3746883 L 5.1152363,12.582768 4.8557845,12.32243 V 9.4324204 6.5424104 L 4.27872,7.1190656 3.7016555,7.6957211 H 3.3594252 3.0171949 L 2.0093898,6.6876797 1.0015848,5.6796384 V 5.3500605 5.0204825 L 3.0111529,3.0110337 5.0207211,1.0015848 H 5.3630958 5.7054704 L 6.7005959,1.9969493 7.6957211,2.9923138 V 3.3473173 3.7023206 L 6.770206,4.6275753 5.844691,5.5528299 V 6.1932136 6.8335975 H 8.3453155 10.84594 l 0.924055,-0.9128368 0.924055,-0.9128368 0.334433,0.00116 0.334433,0.00116 0.678288,0.6683973 0.678289,0.6683976 v 0.338454 0.3384543 l -1.337648,1.3374697 -1.337649,1.3374711 -0.342225,0.00118 -0.342225,0.00118 L 10.682082,9.0091043 10.004418,8.3169572 10.003794,8.0824089 10.00317,7.8478605 H 7.8985737 5.7939778 V 9.8510301 11.8542 h 2.5167706 2.5167706 l 0.925254,-0.925515 0.925255,-0.925515 h 0.342623 0.342624 l 0.665431,0.665786 0.66543,0.665786 v 0.354907 0.354906 l -1.324971,1.324791 -1.324971,1.32479 h -0.355081 -0.355082 z m 2.688102,-2.662153 -0.322938,-0.323657 -1.008049,1.007813 -1.008049,1.007813 0.322938,0.323656 0.322938,0.323657 1.008049,-1.007813 1.008049,-1.007813 z m 0,-4.9952457 -0.322938,-0.3236565 -1.008049,1.0078129 -1.008049,1.0078126 0.322938,0.3236562 0.322938,0.3236564 L 12.671591,7.70242 13.67964,6.6946074 Z M 5.0205474,5.0079787 6.6685236,3.3598562 6.0095082,2.7004749 5.3504926,2.0410936 3.6959019,3.6955395 2.0413113,5.3499857 2.6940068,6.0030435 c 0.3589826,0.3591818 0.658516,0.6530579 0.6656299,0.6530579 0.00711,0 0.7545237,-0.7416553 1.6609107,-1.6481227 z"
     id="path1044" />
  <path
     style="fill:#37abc8;stroke-width:0.0253566"
     d="M 10.681282,14.015675 10.00317,13.337214 V 13.09016 12.843106 H 7.7016279 5.400086 L 5.1279353,12.570109 4.8557845,12.297112 V 9.4070783 6.5170449 L 4.2660458,7.106383 3.6763073,7.6957211 H 3.3594309 3.0425544 L 2.0220696,6.675003 1.0015848,5.6542846 V 5.3500623 5.0458399 L 3.0238308,3.0237124 5.046077,1.0015848 h 0.317017 0.3170171 l 1.007805,1.0080413 1.007805,1.0080413 V 3.3473158 3.6769641 L 6.770206,4.6022187 5.844691,5.5274733 v 0.653062 0.6530622 h 2.5167723 2.5167727 l 0.912368,-0.9126327 0.912369,-0.9126326 0.329971,0.016575 0.329972,0.016574 0.678288,0.6593484 0.678289,0.6593483 V 6.6793856 6.998593 L 13.369167,8.3487417 12.018841,9.6988906 H 11.697757 11.376673 L 10.702771,9.0079239 10.028869,8.3169572 10.028418,8.177496 c -2.54e-4,-0.076704 -0.0075,-0.1822504 -0.01617,-0.2345483 L 9.9965343,7.8478605 H 7.895256 5.7939778 V 9.8510301 11.8542 h 2.5294489 2.5294483 l 0.925255,-0.925515 0.925255,-0.925515 h 0.317263 0.317264 l 0.678112,0.678461 0.678112,0.678461 v 0.329553 0.329552 l -1.337648,1.33747 -1.337648,1.337469 h -0.329723 -0.329723 z m 2.003227,-1.30557 c 0.54745,-0.547319 0.995364,-1.006426 0.995364,-1.020236 0,-0.03315 -0.612997,-0.64708 -0.646093,-0.64708 -0.03316,0 -2.016347,1.982215 -2.016347,2.015361 0,0.03315 0.612996,0.64708 0.646093,0.64708 0.01409,0 0.473532,-0.447806 1.020983,-0.995125 z m 0,-4.995246 c 0.54745,-0.547319 0.995364,-1.0064251 0.995364,-1.0202361 0,-0.033147 -0.612997,-0.6470793 -0.646093,-0.6470793 -0.03316,0 -2.016347,1.9822151 -2.016347,2.0153612 0,0.033147 0.612996,0.6470794 0.646093,0.6470794 0.01409,0 0.473532,-0.4478063 1.020983,-0.9951252 z M 5.043343,5.0086248 6.6941363,3.3611482 6.0350481,2.7011763 C 5.6725497,2.3381918 5.3645,2.0412044 5.3504931,2.0412044 c -0.034257,0 -3.3092887,3.276211 -3.3092887,3.3104802 0,0.038568 1.2799134,1.3044168 1.3189093,1.3044168 0.01784,0 0.7752932,-0.7413644 1.6832293,-1.6474766 z"
     id="path1197" />
  <path
     style="fill:#80b3ff;fill-opacity:1"
     d="M 10.693963,14.003 10.00317,13.311863 V 13.077485 12.843106 H 7.7143249 5.4254803 L 5.1406324,12.557448 4.8557845,12.27179 V 9.3817349 6.49168 L 4.2533715,7.0937004 3.6509589,7.6957211 H 3.3594363 3.0679139 L 2.0347493,6.662326 1.0015848,5.6289308 V 5.350064 5.0711972 L 3.0365088,3.036391 5.0714328,1.0015848 H 5.3628587 5.6542846 L 6.675003,2.0220696 7.6957211,3.0425544 V 3.347081 3.6516075 L 6.770206,4.5768621 5.844691,5.5021168 V 6.167857 6.8335975 h 2.5294524 2.5294526 l 0.899891,-0.9001585 0.89989,-0.9001585 0.241022,0.00146 c 0.421544,0.00256 0.350127,-0.042215 1.103036,0.6914904 l 0.672058,0.6549178 V 6.677192 6.9732346 L 13.355666,8.3368867 11.991838,9.7005386 11.688471,9.6933756 11.385103,9.6862124 10.706815,8.9921488 10.028526,8.2980853 V 8.1130817 c 0,-0.1017521 -0.0069,-0.2030527 -0.01539,-0.2251124 C 9.9992715,7.8518418 9.7891121,7.8478605 7.8958608,7.8478605 H 5.7939778 V 9.8510301 11.8542 h 2.5421272 2.542127 l 0.925255,-0.925515 0.925254,-0.925515 h 0.291904 0.291904 l 0.690794,0.691136 0.690793,0.691137 v 0.304198 0.304198 l -1.350325,1.350148 -1.350326,1.350149 h -0.304364 -0.304364 z m 1.997386,-1.285767 c 0.543688,-0.543398 0.988524,-1.005801 0.988524,-1.027562 0,-0.05209 -0.591852,-0.646882 -0.643682,-0.646882 -0.0518,0 -2.018758,1.963079 -2.018758,2.014771 0,0.05061 0.596423,0.64767 0.646975,0.64767 0.02113,0 0.483253,-0.444599 1.026941,-0.987997 z m 0,-4.9952458 c 0.543688,-0.5433983 0.988524,-1.0053903 0.988524,-1.0266488 0,-0.051044 -0.594501,-0.6477948 -0.645353,-0.6477948 -0.05101,0 -2.017087,1.9643185 -2.017087,2.0152857 0,0.050251 0.596737,0.6471549 0.646975,0.6471549 0.02113,0 0.483253,-0.4445987 1.026941,-0.987997 z M 4.420907,5.6436666 C 4.9878235,5.0868273 5.7369255,4.3443152 6.0855784,3.9936396 L 6.7194929,3.3560476 6.0513139,2.698626 C 5.6838157,2.3370442 5.3668572,2.0412044 5.3469622,2.0412044 c -0.050323,0 -3.3057578,3.2634767 -3.3057578,3.3139236 0,0.049767 1.2631015,1.3009734 1.3133419,1.3009734 0.019582,0 0.4994444,-0.4555958 1.0663607,-1.0124348 z"
     id="path1268" />
  <path
     style="fill:#00ccff;stroke-width:0.0253566;fill-opacity:1"
     d="M 10.681282,14.002997 10.00317,13.324535 V 13.077482 12.830428 H 7.7016279 5.400086 L 5.1279353,12.557431 4.8557845,12.284433 V 9.3944 6.5043667 L 4.2660458,7.0937047 3.6763073,7.6830428 H 3.3594309 3.0425544 L 2.0220696,6.6623247 1.0015848,5.6416063 V 5.3500623 5.0585182 L 3.0238308,3.0363906 5.046077,1.0142631 h 0.317017 0.3170171 l 1.007805,1.0080413 1.007805,1.0080413 v 0.3169701 0.31697 L 6.770206,4.5895404 5.844691,5.5147951 v 0.6657402 0.6657405 h 2.5165117 2.5165113 l 0.914584,-0.914326 0.914583,-0.914326 0.326889,0.018162 0.326889,0.018162 0.679417,0.6610267 0.679417,0.6610265 v 0.304957 0.3049567 l -1.350326,1.3501487 -1.350326,1.350149 H 11.699042 11.379243 L 10.703885,8.9917046 10.028526,8.2971968 10.028138,8.1105635 C 10.027935,8.0079153 10.016935,7.9068146 10.003716,7.8858954 9.9827329,7.8526892 9.7139933,7.8469 7.88683,7.8402941 L 5.7939778,7.832728 v 2.0170749 2.0170751 h 2.5294489 2.5294483 l 0.925255,-0.925515 0.925255,-0.925515 h 0.317263 0.317264 l 0.678112,0.678461 0.678112,0.678462 v 0.316874 0.316874 l -1.337648,1.337469 -1.337648,1.33747 h -0.329723 -0.329723 z m 2.014616,-1.295239 c 0.541186,-0.541637 0.983975,-1.000384 0.983975,-1.019438 0,-0.0524 -0.591331,-0.632852 -0.644711,-0.632852 -0.05374,0 -2.017729,1.9475 -2.017729,2.000787 0,0.05462 0.590168,0.636297 0.645585,0.636297 0.03057,0 0.417769,-0.369172 1.03288,-0.984794 z m 0,-4.9952458 c 0.541186,-0.5416365 0.983975,-0.9995692 0.983975,-1.0176284 0,-0.053274 -0.591168,-0.6346619 -0.645338,-0.6346619 -0.05502,0 -2.017102,1.9472474 -2.017102,2.0018513 0,0.05388 0.590827,0.6352327 0.645585,0.6352327 0.03057,0 0.417769,-0.3691713 1.03288,-0.9847937 z M 3.9131613,6.1382075 C 4.2014932,5.8603388 4.9484186,5.1210647 5.572996,4.4953762 L 6.7085908,3.3577608 6.0509774,2.7058218 C 5.6709977,2.3291207 5.3737151,2.0538827 5.3468227,2.0538827 c -0.053482,0 -3.3054902,3.2463985 -3.3058433,3.300141 -3.192e-4,0.048582 1.2574406,1.2893994 1.3070053,1.2893994 0.022515,0 0.276845,-0.227347 0.5651766,-0.5052156 z"
     id="path1339" />
  <path
     style="fill:#00aad4;stroke-width:0;fill-opacity:1;stroke:none;stroke-opacity:1;stroke-dasharray:none"
     d="M 10.681282,14.002997 10.00317,13.324535 V 13.077482 12.830428 H 7.7016279 5.400086 L 5.1279353,12.557431 4.8557845,12.284433 V 9.3944 6.5043667 L 4.2660458,7.0937047 3.6763073,7.6830428 H 3.3594309 3.0425544 L 2.0220696,6.6623247 1.0015848,5.6416063 V 5.3500623 5.0585182 L 3.0238308,3.0363906 5.046077,1.0142631 h 0.317017 0.3170171 l 1.007805,1.0080413 1.007805,1.0080413 v 0.3169701 0.31697 L 6.770206,4.5895404 5.844691,5.5147951 v 0.6657402 0.6657405 h 2.5165117 2.5165113 l 0.914584,-0.914326 0.914583,-0.914326 0.326889,0.018162 0.326889,0.018162 0.679417,0.6610267 0.679417,0.6610265 v 0.304957 0.3049567 l -1.350326,1.3501487 -1.350326,1.350149 H 11.699042 11.379243 L 10.703885,8.9917046 10.028526,8.2971968 10.028138,8.1105635 C 10.027935,8.0079153 10.016935,7.9068146 10.003716,7.8858954 9.9827329,7.8526892 9.7139933,7.8469 7.88683,7.8402941 L 5.7939778,7.832728 v 2.0170749 2.0170751 h 2.5294489 2.5294483 l 0.925255,-0.925515 0.925255,-0.925515 h 0.317263 0.317264 l 0.678112,0.678461 0.678112,0.678462 v 0.316874 0.316874 l -1.337648,1.337469 -1.337648,1.33747 h -0.329723 -0.329723 z m 2.014616,-1.295239 c 0.541186,-0.541637 0.983975,-1.000384 0.983975,-1.019438 0,-0.0524 -0.591331,-0.632852 -0.644711,-0.632852 -0.05374,0 -2.017729,1.9475 -2.017729,2.000787 0,0.05462 0.590168,0.636297 0.645585,0.636297 0.03057,0 0.417769,-0.369172 1.03288,-0.984794 z m 0,-4.9952458 c 0.541186,-0.5416365 0.983975,-0.9995692 0.983975,-1.0176284 0,-0.053274 -0.591168,-0.6346619 -0.645338,-0.6346619 -0.05502,0 -2.017102,1.9472474 -2.017102,2.0018513 0,0.05388 0.590827,0.6352327 0.645585,0.6352327 0.03057,0 0.417769,-0.3691713 1.03288,-0.9847937 z M 3.9131613,6.1382075 C 4.2014932,5.8603388 4.9484186,5.1210647 5.572996,4.4953762 L 6.7085908,3.3577608 6.0509774,2.7058218 C 5.6709977,2.3291207 5.3737151,2.0538827 5.3468227,2.0538827 c -0.053482,0 -3.3054902,3.2463985 -3.3058433,3.300141 -3.192e-4,0.048582 1.2574406,1.2893994 1.3070053,1.2893994 0.022515,0 0.276845,-0.227347 0.5651766,-0.5052156 z"
     id="path168" />
</svg>
